<mxfile host="app.diagrams.net" modified="2022-06-05T09:29:07.110Z" agent="5.0 (Macintosh; Intel Mac OS X 10_15_7) AppleWebKit/537.36 (KHTML, like Gecko) Chrome/101.0.4951.64 Safari/537.36" etag="vXq7BuiMH2jNJ-dKeLWI" version="19.0.0" type="github">
  <diagram id="TDYAwog_EfeklRHJGcW2" name="Page-1">
    <mxGraphModel dx="946" dy="1715" grid="1" gridSize="10" guides="1" tooltips="1" connect="1" arrows="1" fold="1" page="1" pageScale="1" pageWidth="827" pageHeight="1169" background="#ffffff" math="0" shadow="0">
      <root>
        <mxCell id="0" />
        <mxCell id="1" parent="0" />
        <mxCell id="a0YVWdAsiKzPkVq9oQAb-28" value="" style="group" vertex="1" connectable="0" parent="1">
          <mxGeometry x="22.5" y="-10" width="347.5" height="240" as="geometry" />
        </mxCell>
        <mxCell id="a0YVWdAsiKzPkVq9oQAb-1" value="2" style="ellipse;whiteSpace=wrap;html=1;aspect=fixed;" vertex="1" parent="a0YVWdAsiKzPkVq9oQAb-28">
          <mxGeometry x="117.5" y="90" width="30" height="30" as="geometry" />
        </mxCell>
        <mxCell id="a0YVWdAsiKzPkVq9oQAb-3" value="4" style="ellipse;whiteSpace=wrap;html=1;aspect=fixed;" vertex="1" parent="a0YVWdAsiKzPkVq9oQAb-28">
          <mxGeometry x="157.5" y="150" width="30" height="30" as="geometry" />
        </mxCell>
        <mxCell id="a0YVWdAsiKzPkVq9oQAb-11" style="edgeStyle=none;rounded=0;orthogonalLoop=1;jettySize=auto;html=1;exitX=1;exitY=1;exitDx=0;exitDy=0;" edge="1" parent="a0YVWdAsiKzPkVq9oQAb-28" source="a0YVWdAsiKzPkVq9oQAb-1" target="a0YVWdAsiKzPkVq9oQAb-3">
          <mxGeometry relative="1" as="geometry" />
        </mxCell>
        <mxCell id="a0YVWdAsiKzPkVq9oQAb-4" value="3" style="ellipse;whiteSpace=wrap;html=1;aspect=fixed;" vertex="1" parent="a0YVWdAsiKzPkVq9oQAb-28">
          <mxGeometry x="277.5" y="90" width="30" height="30" as="geometry" />
        </mxCell>
        <mxCell id="a0YVWdAsiKzPkVq9oQAb-5" value="5" style="ellipse;whiteSpace=wrap;html=1;aspect=fixed;" vertex="1" parent="a0YVWdAsiKzPkVq9oQAb-28">
          <mxGeometry x="237.5" y="150" width="30" height="30" as="geometry" />
        </mxCell>
        <mxCell id="a0YVWdAsiKzPkVq9oQAb-12" style="edgeStyle=none;rounded=0;orthogonalLoop=1;jettySize=auto;html=1;exitX=0.307;exitY=0.944;exitDx=0;exitDy=0;entryX=0.772;entryY=0.044;entryDx=0;entryDy=0;entryPerimeter=0;exitPerimeter=0;" edge="1" parent="a0YVWdAsiKzPkVq9oQAb-28" source="a0YVWdAsiKzPkVq9oQAb-4" target="a0YVWdAsiKzPkVq9oQAb-5">
          <mxGeometry relative="1" as="geometry" />
        </mxCell>
        <mxCell id="a0YVWdAsiKzPkVq9oQAb-6" value="6" style="ellipse;whiteSpace=wrap;html=1;aspect=fixed;" vertex="1" parent="a0YVWdAsiKzPkVq9oQAb-28">
          <mxGeometry x="317.5" y="150" width="30" height="30" as="geometry" />
        </mxCell>
        <mxCell id="a0YVWdAsiKzPkVq9oQAb-14" style="edgeStyle=none;rounded=0;orthogonalLoop=1;jettySize=auto;html=1;exitX=1;exitY=1;exitDx=0;exitDy=0;entryX=0.339;entryY=0.055;entryDx=0;entryDy=0;entryPerimeter=0;" edge="1" parent="a0YVWdAsiKzPkVq9oQAb-28" source="a0YVWdAsiKzPkVq9oQAb-4" target="a0YVWdAsiKzPkVq9oQAb-6">
          <mxGeometry relative="1" as="geometry" />
        </mxCell>
        <mxCell id="a0YVWdAsiKzPkVq9oQAb-9" style="rounded=0;orthogonalLoop=1;jettySize=auto;html=1;exitX=0;exitY=1;exitDx=0;exitDy=0;entryX=1;entryY=0;entryDx=0;entryDy=0;" edge="1" parent="a0YVWdAsiKzPkVq9oQAb-28" source="a0YVWdAsiKzPkVq9oQAb-7" target="a0YVWdAsiKzPkVq9oQAb-1">
          <mxGeometry relative="1" as="geometry" />
        </mxCell>
        <mxCell id="a0YVWdAsiKzPkVq9oQAb-10" style="edgeStyle=none;rounded=0;orthogonalLoop=1;jettySize=auto;html=1;exitX=1;exitY=1;exitDx=0;exitDy=0;entryX=0;entryY=0;entryDx=0;entryDy=0;" edge="1" parent="a0YVWdAsiKzPkVq9oQAb-28" source="a0YVWdAsiKzPkVq9oQAb-7" target="a0YVWdAsiKzPkVq9oQAb-4">
          <mxGeometry relative="1" as="geometry" />
        </mxCell>
        <mxCell id="a0YVWdAsiKzPkVq9oQAb-7" value="1" style="ellipse;whiteSpace=wrap;html=1;aspect=fixed;" vertex="1" parent="a0YVWdAsiKzPkVq9oQAb-28">
          <mxGeometry x="197.5" width="30" height="30" as="geometry" />
        </mxCell>
        <mxCell id="a0YVWdAsiKzPkVq9oQAb-8" value="7" style="ellipse;whiteSpace=wrap;html=1;aspect=fixed;" vertex="1" parent="a0YVWdAsiKzPkVq9oQAb-28">
          <mxGeometry x="207.5" y="210" width="30" height="30" as="geometry" />
        </mxCell>
        <mxCell id="a0YVWdAsiKzPkVq9oQAb-13" style="edgeStyle=none;rounded=0;orthogonalLoop=1;jettySize=auto;html=1;exitX=0;exitY=1;exitDx=0;exitDy=0;entryX=0.64;entryY=0.044;entryDx=0;entryDy=0;entryPerimeter=0;" edge="1" parent="a0YVWdAsiKzPkVq9oQAb-28" source="a0YVWdAsiKzPkVq9oQAb-5" target="a0YVWdAsiKzPkVq9oQAb-8">
          <mxGeometry relative="1" as="geometry" />
        </mxCell>
        <mxCell id="a0YVWdAsiKzPkVq9oQAb-19" value="dum" style="ellipse;whiteSpace=wrap;html=1;aspect=fixed;align=center;fontSize=12;fillColor=#dae8fc;strokeColor=#6c8ebf;" vertex="1" parent="a0YVWdAsiKzPkVq9oQAb-28">
          <mxGeometry x="27.5" y="60" width="30" height="30" as="geometry" />
        </mxCell>
        <mxCell id="a0YVWdAsiKzPkVq9oQAb-25" style="edgeStyle=none;rounded=0;orthogonalLoop=1;jettySize=auto;html=1;fontSize=12;dashed=1;" edge="1" parent="a0YVWdAsiKzPkVq9oQAb-28" source="a0YVWdAsiKzPkVq9oQAb-24">
          <mxGeometry relative="1" as="geometry">
            <mxPoint x="42.5" y="100" as="targetPoint" />
          </mxGeometry>
        </mxCell>
        <mxCell id="a0YVWdAsiKzPkVq9oQAb-24" value="pre" style="text;html=1;strokeColor=none;fillColor=none;align=center;verticalAlign=middle;whiteSpace=wrap;rounded=0;fontSize=12;fontStyle=0" vertex="1" parent="a0YVWdAsiKzPkVq9oQAb-28">
          <mxGeometry y="140" width="85" height="10" as="geometry" />
        </mxCell>
        <mxCell id="a0YVWdAsiKzPkVq9oQAb-27" style="edgeStyle=none;rounded=0;orthogonalLoop=1;jettySize=auto;html=1;exitX=1;exitY=0.5;exitDx=0;exitDy=0;fontSize=12;dashed=1;" edge="1" parent="a0YVWdAsiKzPkVq9oQAb-28" source="a0YVWdAsiKzPkVq9oQAb-26">
          <mxGeometry relative="1" as="geometry">
            <mxPoint x="187.5" y="14.999999999999773" as="targetPoint" />
          </mxGeometry>
        </mxCell>
        <mxCell id="a0YVWdAsiKzPkVq9oQAb-26" value="cur" style="text;html=1;strokeColor=none;fillColor=none;align=center;verticalAlign=middle;whiteSpace=wrap;rounded=0;fontSize=12;" vertex="1" parent="a0YVWdAsiKzPkVq9oQAb-28">
          <mxGeometry x="107.5" y="10" width="20" height="10" as="geometry" />
        </mxCell>
        <mxCell id="a0YVWdAsiKzPkVq9oQAb-29" value="" style="group" vertex="1" connectable="0" parent="1">
          <mxGeometry x="480" width="347.5" height="240" as="geometry" />
        </mxCell>
        <mxCell id="a0YVWdAsiKzPkVq9oQAb-30" value="2" style="ellipse;whiteSpace=wrap;html=1;aspect=fixed;" vertex="1" parent="a0YVWdAsiKzPkVq9oQAb-29">
          <mxGeometry x="117.5" y="90" width="30" height="30" as="geometry" />
        </mxCell>
        <mxCell id="a0YVWdAsiKzPkVq9oQAb-31" value="4" style="ellipse;whiteSpace=wrap;html=1;aspect=fixed;" vertex="1" parent="a0YVWdAsiKzPkVq9oQAb-29">
          <mxGeometry x="157.5" y="150" width="30" height="30" as="geometry" />
        </mxCell>
        <mxCell id="a0YVWdAsiKzPkVq9oQAb-32" style="edgeStyle=none;rounded=0;orthogonalLoop=1;jettySize=auto;html=1;exitX=1;exitY=1;exitDx=0;exitDy=0;" edge="1" parent="a0YVWdAsiKzPkVq9oQAb-29" source="a0YVWdAsiKzPkVq9oQAb-30" target="a0YVWdAsiKzPkVq9oQAb-31">
          <mxGeometry relative="1" as="geometry" />
        </mxCell>
        <mxCell id="a0YVWdAsiKzPkVq9oQAb-33" value="3" style="ellipse;whiteSpace=wrap;html=1;aspect=fixed;" vertex="1" parent="a0YVWdAsiKzPkVq9oQAb-29">
          <mxGeometry x="277.5" y="90" width="30" height="30" as="geometry" />
        </mxCell>
        <mxCell id="a0YVWdAsiKzPkVq9oQAb-34" value="5" style="ellipse;whiteSpace=wrap;html=1;aspect=fixed;" vertex="1" parent="a0YVWdAsiKzPkVq9oQAb-29">
          <mxGeometry x="237.5" y="150" width="30" height="30" as="geometry" />
        </mxCell>
        <mxCell id="a0YVWdAsiKzPkVq9oQAb-35" style="edgeStyle=none;rounded=0;orthogonalLoop=1;jettySize=auto;html=1;exitX=0.307;exitY=0.944;exitDx=0;exitDy=0;entryX=0.772;entryY=0.044;entryDx=0;entryDy=0;entryPerimeter=0;exitPerimeter=0;" edge="1" parent="a0YVWdAsiKzPkVq9oQAb-29" source="a0YVWdAsiKzPkVq9oQAb-33" target="a0YVWdAsiKzPkVq9oQAb-34">
          <mxGeometry relative="1" as="geometry" />
        </mxCell>
        <mxCell id="a0YVWdAsiKzPkVq9oQAb-36" value="6" style="ellipse;whiteSpace=wrap;html=1;aspect=fixed;" vertex="1" parent="a0YVWdAsiKzPkVq9oQAb-29">
          <mxGeometry x="317.5" y="150" width="30" height="30" as="geometry" />
        </mxCell>
        <mxCell id="a0YVWdAsiKzPkVq9oQAb-37" style="edgeStyle=none;rounded=0;orthogonalLoop=1;jettySize=auto;html=1;exitX=1;exitY=1;exitDx=0;exitDy=0;entryX=0.339;entryY=0.055;entryDx=0;entryDy=0;entryPerimeter=0;" edge="1" parent="a0YVWdAsiKzPkVq9oQAb-29" source="a0YVWdAsiKzPkVq9oQAb-33" target="a0YVWdAsiKzPkVq9oQAb-36">
          <mxGeometry relative="1" as="geometry" />
        </mxCell>
        <mxCell id="a0YVWdAsiKzPkVq9oQAb-38" style="rounded=0;orthogonalLoop=1;jettySize=auto;html=1;exitX=0;exitY=1;exitDx=0;exitDy=0;entryX=1;entryY=0;entryDx=0;entryDy=0;" edge="1" parent="a0YVWdAsiKzPkVq9oQAb-29" source="a0YVWdAsiKzPkVq9oQAb-40" target="a0YVWdAsiKzPkVq9oQAb-30">
          <mxGeometry relative="1" as="geometry" />
        </mxCell>
        <mxCell id="a0YVWdAsiKzPkVq9oQAb-39" style="edgeStyle=none;rounded=0;orthogonalLoop=1;jettySize=auto;html=1;exitX=1;exitY=1;exitDx=0;exitDy=0;entryX=0;entryY=0;entryDx=0;entryDy=0;" edge="1" parent="a0YVWdAsiKzPkVq9oQAb-29" source="a0YVWdAsiKzPkVq9oQAb-40" target="a0YVWdAsiKzPkVq9oQAb-33">
          <mxGeometry relative="1" as="geometry" />
        </mxCell>
        <mxCell id="a0YVWdAsiKzPkVq9oQAb-40" value="1" style="ellipse;whiteSpace=wrap;html=1;aspect=fixed;" vertex="1" parent="a0YVWdAsiKzPkVq9oQAb-29">
          <mxGeometry x="197.5" width="30" height="30" as="geometry" />
        </mxCell>
        <mxCell id="a0YVWdAsiKzPkVq9oQAb-41" value="7" style="ellipse;whiteSpace=wrap;html=1;aspect=fixed;" vertex="1" parent="a0YVWdAsiKzPkVq9oQAb-29">
          <mxGeometry x="207.5" y="210" width="30" height="30" as="geometry" />
        </mxCell>
        <mxCell id="a0YVWdAsiKzPkVq9oQAb-42" style="edgeStyle=none;rounded=0;orthogonalLoop=1;jettySize=auto;html=1;exitX=0;exitY=1;exitDx=0;exitDy=0;entryX=0.64;entryY=0.044;entryDx=0;entryDy=0;entryPerimeter=0;" edge="1" parent="a0YVWdAsiKzPkVq9oQAb-29" source="a0YVWdAsiKzPkVq9oQAb-34" target="a0YVWdAsiKzPkVq9oQAb-41">
          <mxGeometry relative="1" as="geometry" />
        </mxCell>
        <mxCell id="a0YVWdAsiKzPkVq9oQAb-43" value="dum" style="ellipse;whiteSpace=wrap;html=1;aspect=fixed;align=center;fontSize=12;fillColor=#dae8fc;strokeColor=#6c8ebf;" vertex="1" parent="a0YVWdAsiKzPkVq9oQAb-29">
          <mxGeometry x="27.5" y="60" width="30" height="30" as="geometry" />
        </mxCell>
        <mxCell id="a0YVWdAsiKzPkVq9oQAb-44" style="edgeStyle=none;rounded=0;orthogonalLoop=1;jettySize=auto;html=1;fontSize=12;entryX=0;entryY=1;entryDx=0;entryDy=0;dashed=1;" edge="1" parent="a0YVWdAsiKzPkVq9oQAb-29" source="a0YVWdAsiKzPkVq9oQAb-45" target="a0YVWdAsiKzPkVq9oQAb-30">
          <mxGeometry relative="1" as="geometry">
            <mxPoint x="110" y="120" as="targetPoint" />
          </mxGeometry>
        </mxCell>
        <mxCell id="a0YVWdAsiKzPkVq9oQAb-45" value="pre" style="text;html=1;strokeColor=none;fillColor=none;align=center;verticalAlign=middle;whiteSpace=wrap;rounded=0;fontSize=12;fontStyle=0" vertex="1" parent="a0YVWdAsiKzPkVq9oQAb-29">
          <mxGeometry y="140" width="85" height="10" as="geometry" />
        </mxCell>
        <mxCell id="a0YVWdAsiKzPkVq9oQAb-46" style="edgeStyle=none;rounded=0;orthogonalLoop=1;jettySize=auto;html=1;exitX=1;exitY=0.5;exitDx=0;exitDy=0;fontSize=12;dashed=1;" edge="1" parent="a0YVWdAsiKzPkVq9oQAb-29" source="a0YVWdAsiKzPkVq9oQAb-47">
          <mxGeometry relative="1" as="geometry">
            <mxPoint x="187.5" y="14.999999999999773" as="targetPoint" />
          </mxGeometry>
        </mxCell>
        <mxCell id="a0YVWdAsiKzPkVq9oQAb-47" value="cur" style="text;html=1;strokeColor=none;fillColor=none;align=center;verticalAlign=middle;whiteSpace=wrap;rounded=0;fontSize=12;" vertex="1" parent="a0YVWdAsiKzPkVq9oQAb-29">
          <mxGeometry x="107.5" y="10" width="20" height="10" as="geometry" />
        </mxCell>
        <mxCell id="a0YVWdAsiKzPkVq9oQAb-48" value="" style="shape=flexArrow;endArrow=classic;html=1;rounded=0;fontSize=14;" edge="1" parent="1">
          <mxGeometry width="50" height="50" relative="1" as="geometry">
            <mxPoint x="414" y="109.55" as="sourcePoint" />
            <mxPoint x="474" y="109.55" as="targetPoint" />
          </mxGeometry>
        </mxCell>
        <mxCell id="a0YVWdAsiKzPkVq9oQAb-49" style="edgeStyle=none;rounded=0;orthogonalLoop=1;jettySize=auto;html=1;exitX=1;exitY=0.5;exitDx=0;exitDy=0;fontSize=14;fillColor=#f8cecc;strokeColor=#b85450;" edge="1" parent="1" source="a0YVWdAsiKzPkVq9oQAb-43">
          <mxGeometry relative="1" as="geometry">
            <mxPoint x="600" y="100" as="targetPoint" />
          </mxGeometry>
        </mxCell>
        <mxCell id="a0YVWdAsiKzPkVq9oQAb-52" value="" style="group" vertex="1" connectable="0" parent="1">
          <mxGeometry x="938" width="347.5" height="240" as="geometry" />
        </mxCell>
        <mxCell id="a0YVWdAsiKzPkVq9oQAb-73" style="edgeStyle=none;rounded=0;orthogonalLoop=1;jettySize=auto;html=1;entryX=0;entryY=0.5;entryDx=0;entryDy=0;fontSize=14;fillColor=#f8cecc;strokeColor=#b85450;" edge="1" parent="a0YVWdAsiKzPkVq9oQAb-52" source="a0YVWdAsiKzPkVq9oQAb-53" target="a0YVWdAsiKzPkVq9oQAb-56">
          <mxGeometry relative="1" as="geometry" />
        </mxCell>
        <mxCell id="a0YVWdAsiKzPkVq9oQAb-53" value="2" style="ellipse;whiteSpace=wrap;html=1;aspect=fixed;" vertex="1" parent="a0YVWdAsiKzPkVq9oQAb-52">
          <mxGeometry x="117.5" y="90" width="30" height="30" as="geometry" />
        </mxCell>
        <mxCell id="a0YVWdAsiKzPkVq9oQAb-54" value="4" style="ellipse;whiteSpace=wrap;html=1;aspect=fixed;" vertex="1" parent="a0YVWdAsiKzPkVq9oQAb-52">
          <mxGeometry x="157.5" y="150" width="30" height="30" as="geometry" />
        </mxCell>
        <mxCell id="a0YVWdAsiKzPkVq9oQAb-55" style="edgeStyle=none;rounded=0;orthogonalLoop=1;jettySize=auto;html=1;exitX=1;exitY=1;exitDx=0;exitDy=0;" edge="1" parent="a0YVWdAsiKzPkVq9oQAb-52" source="a0YVWdAsiKzPkVq9oQAb-53" target="a0YVWdAsiKzPkVq9oQAb-54">
          <mxGeometry relative="1" as="geometry" />
        </mxCell>
        <mxCell id="a0YVWdAsiKzPkVq9oQAb-56" value="3" style="ellipse;whiteSpace=wrap;html=1;aspect=fixed;" vertex="1" parent="a0YVWdAsiKzPkVq9oQAb-52">
          <mxGeometry x="277.5" y="90" width="30" height="30" as="geometry" />
        </mxCell>
        <mxCell id="a0YVWdAsiKzPkVq9oQAb-57" value="5" style="ellipse;whiteSpace=wrap;html=1;aspect=fixed;" vertex="1" parent="a0YVWdAsiKzPkVq9oQAb-52">
          <mxGeometry x="237.5" y="150" width="30" height="30" as="geometry" />
        </mxCell>
        <mxCell id="a0YVWdAsiKzPkVq9oQAb-58" style="edgeStyle=none;rounded=0;orthogonalLoop=1;jettySize=auto;html=1;exitX=0.307;exitY=0.944;exitDx=0;exitDy=0;entryX=0.772;entryY=0.044;entryDx=0;entryDy=0;entryPerimeter=0;exitPerimeter=0;" edge="1" parent="a0YVWdAsiKzPkVq9oQAb-52" source="a0YVWdAsiKzPkVq9oQAb-56" target="a0YVWdAsiKzPkVq9oQAb-57">
          <mxGeometry relative="1" as="geometry" />
        </mxCell>
        <mxCell id="a0YVWdAsiKzPkVq9oQAb-59" value="6" style="ellipse;whiteSpace=wrap;html=1;aspect=fixed;" vertex="1" parent="a0YVWdAsiKzPkVq9oQAb-52">
          <mxGeometry x="317.5" y="150" width="30" height="30" as="geometry" />
        </mxCell>
        <mxCell id="a0YVWdAsiKzPkVq9oQAb-60" style="edgeStyle=none;rounded=0;orthogonalLoop=1;jettySize=auto;html=1;exitX=1;exitY=1;exitDx=0;exitDy=0;entryX=0.339;entryY=0.055;entryDx=0;entryDy=0;entryPerimeter=0;" edge="1" parent="a0YVWdAsiKzPkVq9oQAb-52" source="a0YVWdAsiKzPkVq9oQAb-56" target="a0YVWdAsiKzPkVq9oQAb-59">
          <mxGeometry relative="1" as="geometry" />
        </mxCell>
        <mxCell id="a0YVWdAsiKzPkVq9oQAb-61" style="rounded=0;orthogonalLoop=1;jettySize=auto;html=1;exitX=0;exitY=1;exitDx=0;exitDy=0;entryX=1;entryY=0;entryDx=0;entryDy=0;" edge="1" parent="a0YVWdAsiKzPkVq9oQAb-52" source="a0YVWdAsiKzPkVq9oQAb-63" target="a0YVWdAsiKzPkVq9oQAb-53">
          <mxGeometry relative="1" as="geometry" />
        </mxCell>
        <mxCell id="a0YVWdAsiKzPkVq9oQAb-62" style="edgeStyle=none;rounded=0;orthogonalLoop=1;jettySize=auto;html=1;exitX=1;exitY=1;exitDx=0;exitDy=0;entryX=0;entryY=0;entryDx=0;entryDy=0;" edge="1" parent="a0YVWdAsiKzPkVq9oQAb-52" source="a0YVWdAsiKzPkVq9oQAb-63" target="a0YVWdAsiKzPkVq9oQAb-56">
          <mxGeometry relative="1" as="geometry" />
        </mxCell>
        <mxCell id="a0YVWdAsiKzPkVq9oQAb-63" value="1" style="ellipse;whiteSpace=wrap;html=1;aspect=fixed;" vertex="1" parent="a0YVWdAsiKzPkVq9oQAb-52">
          <mxGeometry x="197.5" width="30" height="30" as="geometry" />
        </mxCell>
        <mxCell id="a0YVWdAsiKzPkVq9oQAb-64" value="7" style="ellipse;whiteSpace=wrap;html=1;aspect=fixed;" vertex="1" parent="a0YVWdAsiKzPkVq9oQAb-52">
          <mxGeometry x="207.5" y="210" width="30" height="30" as="geometry" />
        </mxCell>
        <mxCell id="a0YVWdAsiKzPkVq9oQAb-65" style="edgeStyle=none;rounded=0;orthogonalLoop=1;jettySize=auto;html=1;exitX=0;exitY=1;exitDx=0;exitDy=0;entryX=0.64;entryY=0.044;entryDx=0;entryDy=0;entryPerimeter=0;" edge="1" parent="a0YVWdAsiKzPkVq9oQAb-52" source="a0YVWdAsiKzPkVq9oQAb-57" target="a0YVWdAsiKzPkVq9oQAb-64">
          <mxGeometry relative="1" as="geometry" />
        </mxCell>
        <mxCell id="a0YVWdAsiKzPkVq9oQAb-66" value="dum" style="ellipse;whiteSpace=wrap;html=1;aspect=fixed;align=center;fontSize=12;fillColor=#dae8fc;strokeColor=#6c8ebf;" vertex="1" parent="a0YVWdAsiKzPkVq9oQAb-52">
          <mxGeometry x="27.5" y="60" width="30" height="30" as="geometry" />
        </mxCell>
        <mxCell id="a0YVWdAsiKzPkVq9oQAb-67" style="edgeStyle=none;rounded=0;orthogonalLoop=1;jettySize=auto;html=1;fontSize=12;dashed=1;entryX=-0.03;entryY=0.72;entryDx=0;entryDy=0;entryPerimeter=0;" edge="1" parent="a0YVWdAsiKzPkVq9oQAb-52" source="a0YVWdAsiKzPkVq9oQAb-68" target="a0YVWdAsiKzPkVq9oQAb-56">
          <mxGeometry relative="1" as="geometry">
            <mxPoint x="242" y="120" as="targetPoint" />
          </mxGeometry>
        </mxCell>
        <mxCell id="a0YVWdAsiKzPkVq9oQAb-68" value="pre" style="text;html=1;strokeColor=none;fillColor=none;align=center;verticalAlign=middle;whiteSpace=wrap;rounded=0;fontSize=12;fontStyle=0" vertex="1" parent="a0YVWdAsiKzPkVq9oQAb-52">
          <mxGeometry x="32.5" y="140" width="20" height="10" as="geometry" />
        </mxCell>
        <mxCell id="a0YVWdAsiKzPkVq9oQAb-69" style="edgeStyle=none;rounded=0;orthogonalLoop=1;jettySize=auto;html=1;exitX=1;exitY=0.5;exitDx=0;exitDy=0;fontSize=12;dashed=1;" edge="1" parent="a0YVWdAsiKzPkVq9oQAb-52" source="a0YVWdAsiKzPkVq9oQAb-70">
          <mxGeometry relative="1" as="geometry">
            <mxPoint x="187.5" y="14.999999999999773" as="targetPoint" />
          </mxGeometry>
        </mxCell>
        <mxCell id="a0YVWdAsiKzPkVq9oQAb-70" value="cur" style="text;html=1;strokeColor=none;fillColor=none;align=center;verticalAlign=middle;whiteSpace=wrap;rounded=0;fontSize=12;" vertex="1" parent="a0YVWdAsiKzPkVq9oQAb-52">
          <mxGeometry x="107.5" y="10" width="20" height="10" as="geometry" />
        </mxCell>
        <mxCell id="a0YVWdAsiKzPkVq9oQAb-71" value="" style="shape=flexArrow;endArrow=classic;html=1;rounded=0;fontSize=14;" edge="1" parent="1">
          <mxGeometry width="50" height="50" relative="1" as="geometry">
            <mxPoint x="872" y="109.54999999999995" as="sourcePoint" />
            <mxPoint x="932" y="109.54999999999995" as="targetPoint" />
          </mxGeometry>
        </mxCell>
        <mxCell id="a0YVWdAsiKzPkVq9oQAb-72" style="edgeStyle=none;rounded=0;orthogonalLoop=1;jettySize=auto;html=1;exitX=1;exitY=0.5;exitDx=0;exitDy=0;fontSize=14;fillColor=#f8cecc;strokeColor=#b85450;" edge="1" parent="1" source="a0YVWdAsiKzPkVq9oQAb-66">
          <mxGeometry relative="1" as="geometry">
            <mxPoint x="1058" y="100" as="targetPoint" />
          </mxGeometry>
        </mxCell>
        <mxCell id="a0YVWdAsiKzPkVq9oQAb-75" value="" style="group" vertex="1" connectable="0" parent="1">
          <mxGeometry x="946" y="350" width="368" height="240" as="geometry" />
        </mxCell>
        <mxCell id="a0YVWdAsiKzPkVq9oQAb-76" style="edgeStyle=none;rounded=0;orthogonalLoop=1;jettySize=auto;html=1;entryX=0;entryY=0.5;entryDx=0;entryDy=0;fontSize=14;fillColor=#f8cecc;strokeColor=#b85450;" edge="1" parent="a0YVWdAsiKzPkVq9oQAb-75" source="a0YVWdAsiKzPkVq9oQAb-77" target="a0YVWdAsiKzPkVq9oQAb-80">
          <mxGeometry relative="1" as="geometry" />
        </mxCell>
        <mxCell id="a0YVWdAsiKzPkVq9oQAb-77" value="2" style="ellipse;whiteSpace=wrap;html=1;aspect=fixed;" vertex="1" parent="a0YVWdAsiKzPkVq9oQAb-75">
          <mxGeometry x="117.5" y="90" width="30" height="30" as="geometry" />
        </mxCell>
        <mxCell id="a0YVWdAsiKzPkVq9oQAb-78" value="4" style="ellipse;whiteSpace=wrap;html=1;aspect=fixed;" vertex="1" parent="a0YVWdAsiKzPkVq9oQAb-75">
          <mxGeometry x="157.5" y="150" width="30" height="30" as="geometry" />
        </mxCell>
        <mxCell id="a0YVWdAsiKzPkVq9oQAb-79" style="edgeStyle=none;rounded=0;orthogonalLoop=1;jettySize=auto;html=1;exitX=1;exitY=1;exitDx=0;exitDy=0;" edge="1" parent="a0YVWdAsiKzPkVq9oQAb-75" source="a0YVWdAsiKzPkVq9oQAb-77" target="a0YVWdAsiKzPkVq9oQAb-78">
          <mxGeometry relative="1" as="geometry" />
        </mxCell>
        <mxCell id="a0YVWdAsiKzPkVq9oQAb-80" value="3" style="ellipse;whiteSpace=wrap;html=1;aspect=fixed;" vertex="1" parent="a0YVWdAsiKzPkVq9oQAb-75">
          <mxGeometry x="277.5" y="90" width="30" height="30" as="geometry" />
        </mxCell>
        <mxCell id="a0YVWdAsiKzPkVq9oQAb-81" value="5" style="ellipse;whiteSpace=wrap;html=1;aspect=fixed;" vertex="1" parent="a0YVWdAsiKzPkVq9oQAb-75">
          <mxGeometry x="237.5" y="150" width="30" height="30" as="geometry" />
        </mxCell>
        <mxCell id="a0YVWdAsiKzPkVq9oQAb-82" style="edgeStyle=none;rounded=0;orthogonalLoop=1;jettySize=auto;html=1;exitX=0.307;exitY=0.944;exitDx=0;exitDy=0;entryX=0.772;entryY=0.044;entryDx=0;entryDy=0;entryPerimeter=0;exitPerimeter=0;" edge="1" parent="a0YVWdAsiKzPkVq9oQAb-75" source="a0YVWdAsiKzPkVq9oQAb-80" target="a0YVWdAsiKzPkVq9oQAb-81">
          <mxGeometry relative="1" as="geometry" />
        </mxCell>
        <mxCell id="a0YVWdAsiKzPkVq9oQAb-83" value="6" style="ellipse;whiteSpace=wrap;html=1;aspect=fixed;" vertex="1" parent="a0YVWdAsiKzPkVq9oQAb-75">
          <mxGeometry x="317.5" y="150" width="30" height="30" as="geometry" />
        </mxCell>
        <mxCell id="a0YVWdAsiKzPkVq9oQAb-84" style="edgeStyle=none;rounded=0;orthogonalLoop=1;jettySize=auto;html=1;exitX=1;exitY=1;exitDx=0;exitDy=0;entryX=0.339;entryY=0.055;entryDx=0;entryDy=0;entryPerimeter=0;" edge="1" parent="a0YVWdAsiKzPkVq9oQAb-75" source="a0YVWdAsiKzPkVq9oQAb-80" target="a0YVWdAsiKzPkVq9oQAb-83">
          <mxGeometry relative="1" as="geometry" />
        </mxCell>
        <mxCell id="a0YVWdAsiKzPkVq9oQAb-85" style="rounded=0;orthogonalLoop=1;jettySize=auto;html=1;exitX=0;exitY=1;exitDx=0;exitDy=0;entryX=1;entryY=0;entryDx=0;entryDy=0;" edge="1" parent="a0YVWdAsiKzPkVq9oQAb-75" source="a0YVWdAsiKzPkVq9oQAb-87" target="a0YVWdAsiKzPkVq9oQAb-77">
          <mxGeometry relative="1" as="geometry" />
        </mxCell>
        <mxCell id="a0YVWdAsiKzPkVq9oQAb-86" style="edgeStyle=none;rounded=0;orthogonalLoop=1;jettySize=auto;html=1;exitX=1;exitY=1;exitDx=0;exitDy=0;entryX=0;entryY=0;entryDx=0;entryDy=0;" edge="1" parent="a0YVWdAsiKzPkVq9oQAb-75" source="a0YVWdAsiKzPkVq9oQAb-87" target="a0YVWdAsiKzPkVq9oQAb-80">
          <mxGeometry relative="1" as="geometry" />
        </mxCell>
        <mxCell id="a0YVWdAsiKzPkVq9oQAb-87" value="1" style="ellipse;whiteSpace=wrap;html=1;aspect=fixed;" vertex="1" parent="a0YVWdAsiKzPkVq9oQAb-75">
          <mxGeometry x="197.5" width="30" height="30" as="geometry" />
        </mxCell>
        <mxCell id="a0YVWdAsiKzPkVq9oQAb-88" value="7" style="ellipse;whiteSpace=wrap;html=1;aspect=fixed;" vertex="1" parent="a0YVWdAsiKzPkVq9oQAb-75">
          <mxGeometry x="207.5" y="210" width="30" height="30" as="geometry" />
        </mxCell>
        <mxCell id="a0YVWdAsiKzPkVq9oQAb-89" style="edgeStyle=none;rounded=0;orthogonalLoop=1;jettySize=auto;html=1;exitX=0;exitY=1;exitDx=0;exitDy=0;entryX=0.64;entryY=0.044;entryDx=0;entryDy=0;entryPerimeter=0;" edge="1" parent="a0YVWdAsiKzPkVq9oQAb-75" source="a0YVWdAsiKzPkVq9oQAb-81" target="a0YVWdAsiKzPkVq9oQAb-88">
          <mxGeometry relative="1" as="geometry" />
        </mxCell>
        <mxCell id="a0YVWdAsiKzPkVq9oQAb-90" value="dum" style="ellipse;whiteSpace=wrap;html=1;aspect=fixed;align=center;fontSize=12;fillColor=#dae8fc;strokeColor=#6c8ebf;" vertex="1" parent="a0YVWdAsiKzPkVq9oQAb-75">
          <mxGeometry x="27.5" y="60" width="30" height="30" as="geometry" />
        </mxCell>
        <mxCell id="a0YVWdAsiKzPkVq9oQAb-91" style="edgeStyle=none;rounded=0;orthogonalLoop=1;jettySize=auto;html=1;fontSize=12;dashed=1;entryX=-0.03;entryY=0.72;entryDx=0;entryDy=0;entryPerimeter=0;" edge="1" parent="a0YVWdAsiKzPkVq9oQAb-75" source="a0YVWdAsiKzPkVq9oQAb-92" target="a0YVWdAsiKzPkVq9oQAb-80">
          <mxGeometry relative="1" as="geometry">
            <mxPoint x="242" y="120" as="targetPoint" />
          </mxGeometry>
        </mxCell>
        <mxCell id="a0YVWdAsiKzPkVq9oQAb-92" value="pre" style="text;html=1;strokeColor=none;fillColor=none;align=center;verticalAlign=middle;whiteSpace=wrap;rounded=0;fontSize=12;fontStyle=0" vertex="1" parent="a0YVWdAsiKzPkVq9oQAb-75">
          <mxGeometry x="32.5" y="140" width="20" height="10" as="geometry" />
        </mxCell>
        <mxCell id="a0YVWdAsiKzPkVq9oQAb-93" style="edgeStyle=orthogonalEdgeStyle;rounded=0;orthogonalLoop=1;jettySize=auto;html=1;exitX=0.5;exitY=0;exitDx=0;exitDy=0;fontSize=12;dashed=1;" edge="1" parent="a0YVWdAsiKzPkVq9oQAb-75" source="a0YVWdAsiKzPkVq9oQAb-94">
          <mxGeometry relative="1" as="geometry">
            <mxPoint x="324" as="targetPoint" />
            <Array as="points">
              <mxPoint x="118" y="-20" />
              <mxPoint x="324" y="-20" />
            </Array>
          </mxGeometry>
        </mxCell>
        <mxCell id="a0YVWdAsiKzPkVq9oQAb-94" value="cur" style="text;html=1;strokeColor=none;fillColor=none;align=center;verticalAlign=middle;whiteSpace=wrap;rounded=0;fontSize=12;" vertex="1" parent="a0YVWdAsiKzPkVq9oQAb-75">
          <mxGeometry x="107.5" y="10" width="20" height="10" as="geometry" />
        </mxCell>
        <mxCell id="a0YVWdAsiKzPkVq9oQAb-99" value="nil" style="text;html=1;strokeColor=none;fillColor=none;align=center;verticalAlign=middle;whiteSpace=wrap;rounded=0;fontSize=14;" vertex="1" parent="a0YVWdAsiKzPkVq9oQAb-75">
          <mxGeometry x="307.5" y="5" width="22" height="20" as="geometry" />
        </mxCell>
        <mxCell id="a0YVWdAsiKzPkVq9oQAb-95" value="" style="shape=flexArrow;endArrow=classic;html=1;rounded=0;fontSize=14;" edge="1" parent="1">
          <mxGeometry width="50" height="50" relative="1" as="geometry">
            <mxPoint x="1160" y="270" as="sourcePoint" />
            <mxPoint x="1160" y="320" as="targetPoint" />
          </mxGeometry>
        </mxCell>
        <mxCell id="a0YVWdAsiKzPkVq9oQAb-96" style="edgeStyle=none;rounded=0;orthogonalLoop=1;jettySize=auto;html=1;exitX=1;exitY=0.5;exitDx=0;exitDy=0;fontSize=14;fillColor=#f8cecc;strokeColor=#b85450;" edge="1" parent="1" source="a0YVWdAsiKzPkVq9oQAb-90">
          <mxGeometry relative="1" as="geometry">
            <mxPoint x="1066" y="449.9999999999998" as="targetPoint" />
          </mxGeometry>
        </mxCell>
        <mxCell id="a0YVWdAsiKzPkVq9oQAb-98" style="edgeStyle=none;rounded=0;jumpStyle=gap;orthogonalLoop=1;jettySize=auto;html=1;fontSize=14;" edge="1" parent="1" source="a0YVWdAsiKzPkVq9oQAb-87">
          <mxGeometry relative="1" as="geometry">
            <mxPoint x="1250" y="365" as="targetPoint" />
          </mxGeometry>
        </mxCell>
        <mxCell id="a0YVWdAsiKzPkVq9oQAb-102" value="" style="group" vertex="1" connectable="0" parent="1">
          <mxGeometry x="490" y="360" width="368" height="240" as="geometry" />
        </mxCell>
        <mxCell id="a0YVWdAsiKzPkVq9oQAb-103" style="edgeStyle=none;rounded=0;orthogonalLoop=1;jettySize=auto;html=1;entryX=0;entryY=0.5;entryDx=0;entryDy=0;fontSize=14;fillColor=#f8cecc;strokeColor=#b85450;" edge="1" parent="a0YVWdAsiKzPkVq9oQAb-102" source="a0YVWdAsiKzPkVq9oQAb-104" target="a0YVWdAsiKzPkVq9oQAb-107">
          <mxGeometry relative="1" as="geometry" />
        </mxCell>
        <mxCell id="a0YVWdAsiKzPkVq9oQAb-104" value="2" style="ellipse;whiteSpace=wrap;html=1;aspect=fixed;" vertex="1" parent="a0YVWdAsiKzPkVq9oQAb-102">
          <mxGeometry x="117.5" y="90" width="30" height="30" as="geometry" />
        </mxCell>
        <mxCell id="a0YVWdAsiKzPkVq9oQAb-105" value="4" style="ellipse;whiteSpace=wrap;html=1;aspect=fixed;" vertex="1" parent="a0YVWdAsiKzPkVq9oQAb-102">
          <mxGeometry x="157.5" y="150" width="30" height="30" as="geometry" />
        </mxCell>
        <mxCell id="a0YVWdAsiKzPkVq9oQAb-106" style="edgeStyle=none;rounded=0;orthogonalLoop=1;jettySize=auto;html=1;exitX=1;exitY=1;exitDx=0;exitDy=0;" edge="1" parent="a0YVWdAsiKzPkVq9oQAb-102" source="a0YVWdAsiKzPkVq9oQAb-104" target="a0YVWdAsiKzPkVq9oQAb-105">
          <mxGeometry relative="1" as="geometry" />
        </mxCell>
        <mxCell id="a0YVWdAsiKzPkVq9oQAb-107" value="3" style="ellipse;whiteSpace=wrap;html=1;aspect=fixed;" vertex="1" parent="a0YVWdAsiKzPkVq9oQAb-102">
          <mxGeometry x="277.5" y="90" width="30" height="30" as="geometry" />
        </mxCell>
        <mxCell id="a0YVWdAsiKzPkVq9oQAb-108" value="5" style="ellipse;whiteSpace=wrap;html=1;aspect=fixed;" vertex="1" parent="a0YVWdAsiKzPkVq9oQAb-102">
          <mxGeometry x="237.5" y="150" width="30" height="30" as="geometry" />
        </mxCell>
        <mxCell id="a0YVWdAsiKzPkVq9oQAb-109" style="edgeStyle=none;rounded=0;orthogonalLoop=1;jettySize=auto;html=1;exitX=0.307;exitY=0.944;exitDx=0;exitDy=0;entryX=0.772;entryY=0.044;entryDx=0;entryDy=0;entryPerimeter=0;exitPerimeter=0;" edge="1" parent="a0YVWdAsiKzPkVq9oQAb-102" source="a0YVWdAsiKzPkVq9oQAb-107" target="a0YVWdAsiKzPkVq9oQAb-108">
          <mxGeometry relative="1" as="geometry" />
        </mxCell>
        <mxCell id="a0YVWdAsiKzPkVq9oQAb-110" value="6" style="ellipse;whiteSpace=wrap;html=1;aspect=fixed;" vertex="1" parent="a0YVWdAsiKzPkVq9oQAb-102">
          <mxGeometry x="317.5" y="150" width="30" height="30" as="geometry" />
        </mxCell>
        <mxCell id="a0YVWdAsiKzPkVq9oQAb-111" style="edgeStyle=none;rounded=0;orthogonalLoop=1;jettySize=auto;html=1;exitX=1;exitY=1;exitDx=0;exitDy=0;entryX=0.339;entryY=0.055;entryDx=0;entryDy=0;entryPerimeter=0;" edge="1" parent="a0YVWdAsiKzPkVq9oQAb-102" source="a0YVWdAsiKzPkVq9oQAb-107" target="a0YVWdAsiKzPkVq9oQAb-110">
          <mxGeometry relative="1" as="geometry" />
        </mxCell>
        <mxCell id="a0YVWdAsiKzPkVq9oQAb-112" style="rounded=0;orthogonalLoop=1;jettySize=auto;html=1;exitX=0;exitY=1;exitDx=0;exitDy=0;entryX=1;entryY=0;entryDx=0;entryDy=0;" edge="1" parent="a0YVWdAsiKzPkVq9oQAb-102" source="a0YVWdAsiKzPkVq9oQAb-114" target="a0YVWdAsiKzPkVq9oQAb-104">
          <mxGeometry relative="1" as="geometry" />
        </mxCell>
        <mxCell id="a0YVWdAsiKzPkVq9oQAb-113" style="edgeStyle=none;rounded=0;orthogonalLoop=1;jettySize=auto;html=1;exitX=1;exitY=1;exitDx=0;exitDy=0;entryX=0;entryY=0;entryDx=0;entryDy=0;" edge="1" parent="a0YVWdAsiKzPkVq9oQAb-102" source="a0YVWdAsiKzPkVq9oQAb-114" target="a0YVWdAsiKzPkVq9oQAb-107">
          <mxGeometry relative="1" as="geometry" />
        </mxCell>
        <mxCell id="a0YVWdAsiKzPkVq9oQAb-114" value="1" style="ellipse;whiteSpace=wrap;html=1;aspect=fixed;" vertex="1" parent="a0YVWdAsiKzPkVq9oQAb-102">
          <mxGeometry x="197.5" width="30" height="30" as="geometry" />
        </mxCell>
        <mxCell id="a0YVWdAsiKzPkVq9oQAb-115" value="7" style="ellipse;whiteSpace=wrap;html=1;aspect=fixed;" vertex="1" parent="a0YVWdAsiKzPkVq9oQAb-102">
          <mxGeometry x="207.5" y="210" width="30" height="30" as="geometry" />
        </mxCell>
        <mxCell id="a0YVWdAsiKzPkVq9oQAb-116" style="edgeStyle=none;rounded=0;orthogonalLoop=1;jettySize=auto;html=1;exitX=0;exitY=1;exitDx=0;exitDy=0;entryX=0.64;entryY=0.044;entryDx=0;entryDy=0;entryPerimeter=0;" edge="1" parent="a0YVWdAsiKzPkVq9oQAb-102" source="a0YVWdAsiKzPkVq9oQAb-108" target="a0YVWdAsiKzPkVq9oQAb-115">
          <mxGeometry relative="1" as="geometry" />
        </mxCell>
        <mxCell id="a0YVWdAsiKzPkVq9oQAb-117" value="dum" style="ellipse;whiteSpace=wrap;html=1;aspect=fixed;align=center;fontSize=12;fillColor=#dae8fc;strokeColor=#6c8ebf;" vertex="1" parent="a0YVWdAsiKzPkVq9oQAb-102">
          <mxGeometry x="27.5" y="60" width="30" height="30" as="geometry" />
        </mxCell>
        <mxCell id="a0YVWdAsiKzPkVq9oQAb-118" style="edgeStyle=none;rounded=0;orthogonalLoop=1;jettySize=auto;html=1;fontSize=12;dashed=1;" edge="1" parent="a0YVWdAsiKzPkVq9oQAb-102" source="a0YVWdAsiKzPkVq9oQAb-119">
          <mxGeometry relative="1" as="geometry">
            <mxPoint x="43" y="90" as="targetPoint" />
          </mxGeometry>
        </mxCell>
        <mxCell id="a0YVWdAsiKzPkVq9oQAb-119" value="pre" style="text;html=1;strokeColor=none;fillColor=none;align=center;verticalAlign=middle;whiteSpace=wrap;rounded=0;fontSize=12;fontStyle=0" vertex="1" parent="a0YVWdAsiKzPkVq9oQAb-102">
          <mxGeometry x="32.5" y="140" width="20" height="10" as="geometry" />
        </mxCell>
        <mxCell id="a0YVWdAsiKzPkVq9oQAb-121" value="cur" style="text;html=1;strokeColor=none;fillColor=none;align=center;verticalAlign=middle;whiteSpace=wrap;rounded=0;fontSize=12;" vertex="1" parent="a0YVWdAsiKzPkVq9oQAb-102">
          <mxGeometry x="107.5" y="10" width="20" height="10" as="geometry" />
        </mxCell>
        <mxCell id="a0YVWdAsiKzPkVq9oQAb-122" value="nil" style="text;html=1;strokeColor=none;fillColor=none;align=center;verticalAlign=middle;whiteSpace=wrap;rounded=0;fontSize=14;" vertex="1" parent="a0YVWdAsiKzPkVq9oQAb-102">
          <mxGeometry x="307.5" y="5" width="22" height="20" as="geometry" />
        </mxCell>
        <mxCell id="a0YVWdAsiKzPkVq9oQAb-124" style="edgeStyle=none;rounded=0;jumpStyle=gap;orthogonalLoop=1;jettySize=auto;html=1;fontSize=14;" edge="1" parent="1" source="a0YVWdAsiKzPkVq9oQAb-114">
          <mxGeometry relative="1" as="geometry">
            <mxPoint x="794" y="374.9999999999998" as="targetPoint" />
          </mxGeometry>
        </mxCell>
        <mxCell id="a0YVWdAsiKzPkVq9oQAb-125" value="" style="shape=flexArrow;endArrow=classic;html=1;rounded=0;fontSize=14;jumpStyle=gap;" edge="1" parent="1">
          <mxGeometry width="50" height="50" relative="1" as="geometry">
            <mxPoint x="938" y="440" as="sourcePoint" />
            <mxPoint x="878" y="440" as="targetPoint" />
          </mxGeometry>
        </mxCell>
        <mxCell id="a0YVWdAsiKzPkVq9oQAb-127" style="rounded=0;jumpStyle=gap;orthogonalLoop=1;jettySize=auto;html=1;fontSize=14;dashed=1;" edge="1" parent="1" source="a0YVWdAsiKzPkVq9oQAb-121">
          <mxGeometry relative="1" as="geometry">
            <mxPoint x="620" y="450" as="targetPoint" />
          </mxGeometry>
        </mxCell>
        <mxCell id="a0YVWdAsiKzPkVq9oQAb-150" style="edgeStyle=none;rounded=0;orthogonalLoop=1;jettySize=auto;html=1;entryX=0;entryY=0.5;entryDx=0;entryDy=0;fontSize=14;fillColor=#f8cecc;strokeColor=#b85450;" edge="1" parent="1" source="a0YVWdAsiKzPkVq9oQAb-151" target="a0YVWdAsiKzPkVq9oQAb-154">
          <mxGeometry relative="1" as="geometry" />
        </mxCell>
        <mxCell id="a0YVWdAsiKzPkVq9oQAb-151" value="2" style="ellipse;whiteSpace=wrap;html=1;aspect=fixed;" vertex="1" parent="1">
          <mxGeometry x="140" y="470" width="30" height="30" as="geometry" />
        </mxCell>
        <mxCell id="a0YVWdAsiKzPkVq9oQAb-152" value="4" style="ellipse;whiteSpace=wrap;html=1;aspect=fixed;" vertex="1" parent="1">
          <mxGeometry x="180" y="530" width="30" height="30" as="geometry" />
        </mxCell>
        <mxCell id="a0YVWdAsiKzPkVq9oQAb-153" style="edgeStyle=none;rounded=0;orthogonalLoop=1;jettySize=auto;html=1;exitX=1;exitY=1;exitDx=0;exitDy=0;" edge="1" parent="1" source="a0YVWdAsiKzPkVq9oQAb-151" target="a0YVWdAsiKzPkVq9oQAb-152">
          <mxGeometry relative="1" as="geometry" />
        </mxCell>
        <mxCell id="a0YVWdAsiKzPkVq9oQAb-154" value="3" style="ellipse;whiteSpace=wrap;html=1;aspect=fixed;" vertex="1" parent="1">
          <mxGeometry x="300" y="470" width="30" height="30" as="geometry" />
        </mxCell>
        <mxCell id="a0YVWdAsiKzPkVq9oQAb-155" value="5" style="ellipse;whiteSpace=wrap;html=1;aspect=fixed;" vertex="1" parent="1">
          <mxGeometry x="260" y="530" width="30" height="30" as="geometry" />
        </mxCell>
        <mxCell id="a0YVWdAsiKzPkVq9oQAb-156" style="edgeStyle=none;rounded=0;orthogonalLoop=1;jettySize=auto;html=1;exitX=0.307;exitY=0.944;exitDx=0;exitDy=0;entryX=0.772;entryY=0.044;entryDx=0;entryDy=0;entryPerimeter=0;exitPerimeter=0;" edge="1" parent="1" source="a0YVWdAsiKzPkVq9oQAb-154" target="a0YVWdAsiKzPkVq9oQAb-155">
          <mxGeometry relative="1" as="geometry" />
        </mxCell>
        <mxCell id="a0YVWdAsiKzPkVq9oQAb-157" value="6" style="ellipse;whiteSpace=wrap;html=1;aspect=fixed;" vertex="1" parent="1">
          <mxGeometry x="340" y="530" width="30" height="30" as="geometry" />
        </mxCell>
        <mxCell id="a0YVWdAsiKzPkVq9oQAb-158" style="edgeStyle=none;rounded=0;orthogonalLoop=1;jettySize=auto;html=1;exitX=1;exitY=1;exitDx=0;exitDy=0;entryX=0.339;entryY=0.055;entryDx=0;entryDy=0;entryPerimeter=0;" edge="1" parent="1" source="a0YVWdAsiKzPkVq9oQAb-154" target="a0YVWdAsiKzPkVq9oQAb-157">
          <mxGeometry relative="1" as="geometry" />
        </mxCell>
        <mxCell id="a0YVWdAsiKzPkVq9oQAb-159" style="rounded=0;orthogonalLoop=1;jettySize=auto;html=1;exitX=0;exitY=1;exitDx=0;exitDy=0;entryX=1;entryY=0;entryDx=0;entryDy=0;" edge="1" parent="1" source="a0YVWdAsiKzPkVq9oQAb-161" target="a0YVWdAsiKzPkVq9oQAb-151">
          <mxGeometry relative="1" as="geometry" />
        </mxCell>
        <mxCell id="a0YVWdAsiKzPkVq9oQAb-160" style="edgeStyle=none;rounded=0;orthogonalLoop=1;jettySize=auto;html=1;exitX=1;exitY=1;exitDx=0;exitDy=0;entryX=0;entryY=0;entryDx=0;entryDy=0;" edge="1" parent="1" source="a0YVWdAsiKzPkVq9oQAb-161" target="a0YVWdAsiKzPkVq9oQAb-154">
          <mxGeometry relative="1" as="geometry" />
        </mxCell>
        <mxCell id="a0YVWdAsiKzPkVq9oQAb-161" value="1" style="ellipse;whiteSpace=wrap;html=1;aspect=fixed;" vertex="1" parent="1">
          <mxGeometry x="220" y="380" width="30" height="30" as="geometry" />
        </mxCell>
        <mxCell id="a0YVWdAsiKzPkVq9oQAb-162" value="7" style="ellipse;whiteSpace=wrap;html=1;aspect=fixed;" vertex="1" parent="1">
          <mxGeometry x="230" y="590" width="30" height="30" as="geometry" />
        </mxCell>
        <mxCell id="a0YVWdAsiKzPkVq9oQAb-163" style="edgeStyle=none;rounded=0;orthogonalLoop=1;jettySize=auto;html=1;exitX=0;exitY=1;exitDx=0;exitDy=0;entryX=0.64;entryY=0.044;entryDx=0;entryDy=0;entryPerimeter=0;" edge="1" parent="1" source="a0YVWdAsiKzPkVq9oQAb-155" target="a0YVWdAsiKzPkVq9oQAb-162">
          <mxGeometry relative="1" as="geometry" />
        </mxCell>
        <mxCell id="a0YVWdAsiKzPkVq9oQAb-172" style="edgeStyle=none;rounded=0;jumpStyle=gap;orthogonalLoop=1;jettySize=auto;html=1;exitX=1;exitY=1;exitDx=0;exitDy=0;entryX=0;entryY=0.5;entryDx=0;entryDy=0;fontSize=14;fillColor=#f8cecc;strokeColor=#b85450;" edge="1" parent="1" source="a0YVWdAsiKzPkVq9oQAb-164" target="a0YVWdAsiKzPkVq9oQAb-152">
          <mxGeometry relative="1" as="geometry" />
        </mxCell>
        <mxCell id="a0YVWdAsiKzPkVq9oQAb-164" value="dum" style="ellipse;whiteSpace=wrap;html=1;aspect=fixed;align=center;fontSize=12;fillColor=#dae8fc;strokeColor=#6c8ebf;" vertex="1" parent="1">
          <mxGeometry x="50" y="440" width="30" height="30" as="geometry" />
        </mxCell>
        <mxCell id="a0YVWdAsiKzPkVq9oQAb-165" style="edgeStyle=none;rounded=0;orthogonalLoop=1;jettySize=auto;html=1;fontSize=12;dashed=1;entryX=0;entryY=0.5;entryDx=0;entryDy=0;" edge="1" parent="1" source="a0YVWdAsiKzPkVq9oQAb-166" target="a0YVWdAsiKzPkVq9oQAb-152">
          <mxGeometry relative="1" as="geometry">
            <mxPoint x="65.5" y="470" as="targetPoint" />
          </mxGeometry>
        </mxCell>
        <mxCell id="a0YVWdAsiKzPkVq9oQAb-166" value="pre" style="text;html=1;strokeColor=none;fillColor=none;align=center;verticalAlign=middle;whiteSpace=wrap;rounded=0;fontSize=12;fontStyle=0" vertex="1" parent="1">
          <mxGeometry x="55" y="520" width="20" height="10" as="geometry" />
        </mxCell>
        <mxCell id="a0YVWdAsiKzPkVq9oQAb-167" value="cur" style="text;html=1;strokeColor=none;fillColor=none;align=center;verticalAlign=middle;whiteSpace=wrap;rounded=0;fontSize=12;" vertex="1" parent="1">
          <mxGeometry x="130" y="390" width="20" height="10" as="geometry" />
        </mxCell>
        <mxCell id="a0YVWdAsiKzPkVq9oQAb-168" value="nil" style="text;html=1;strokeColor=none;fillColor=none;align=center;verticalAlign=middle;whiteSpace=wrap;rounded=0;fontSize=14;" vertex="1" parent="1">
          <mxGeometry x="330" y="385" width="22" height="20" as="geometry" />
        </mxCell>
        <mxCell id="a0YVWdAsiKzPkVq9oQAb-169" style="edgeStyle=none;rounded=0;jumpStyle=gap;orthogonalLoop=1;jettySize=auto;html=1;fontSize=14;" edge="1" parent="1" source="a0YVWdAsiKzPkVq9oQAb-161">
          <mxGeometry relative="1" as="geometry">
            <mxPoint x="326.5" y="394.9999999999998" as="targetPoint" />
          </mxGeometry>
        </mxCell>
        <mxCell id="a0YVWdAsiKzPkVq9oQAb-170" style="rounded=0;jumpStyle=gap;orthogonalLoop=1;jettySize=auto;html=1;fontSize=14;dashed=1;" edge="1" parent="1" source="a0YVWdAsiKzPkVq9oQAb-167">
          <mxGeometry relative="1" as="geometry">
            <mxPoint x="152.5" y="470" as="targetPoint" />
          </mxGeometry>
        </mxCell>
        <mxCell id="a0YVWdAsiKzPkVq9oQAb-171" value="" style="shape=flexArrow;endArrow=classic;html=1;rounded=0;fontSize=14;jumpStyle=gap;" edge="1" parent="1">
          <mxGeometry width="50" height="50" relative="1" as="geometry">
            <mxPoint x="480" y="440" as="sourcePoint" />
            <mxPoint x="410" y="440" as="targetPoint" />
          </mxGeometry>
        </mxCell>
        <mxCell id="a0YVWdAsiKzPkVq9oQAb-173" style="edgeStyle=none;rounded=0;orthogonalLoop=1;jettySize=auto;html=1;entryX=0;entryY=0.5;entryDx=0;entryDy=0;fontSize=14;fillColor=#f8cecc;strokeColor=#b85450;" edge="1" parent="1" source="a0YVWdAsiKzPkVq9oQAb-174" target="a0YVWdAsiKzPkVq9oQAb-177">
          <mxGeometry relative="1" as="geometry" />
        </mxCell>
        <mxCell id="a0YVWdAsiKzPkVq9oQAb-174" value="2" style="ellipse;whiteSpace=wrap;html=1;aspect=fixed;" vertex="1" parent="1">
          <mxGeometry x="140" y="830" width="30" height="30" as="geometry" />
        </mxCell>
        <mxCell id="a0YVWdAsiKzPkVq9oQAb-196" style="edgeStyle=orthogonalEdgeStyle;curved=1;rounded=0;jumpStyle=gap;orthogonalLoop=1;jettySize=auto;html=1;exitX=1;exitY=0.5;exitDx=0;exitDy=0;entryX=0;entryY=0.5;entryDx=0;entryDy=0;fontSize=14;fillColor=#f8cecc;strokeColor=#b85450;" edge="1" parent="1" source="a0YVWdAsiKzPkVq9oQAb-175" target="a0YVWdAsiKzPkVq9oQAb-178">
          <mxGeometry relative="1" as="geometry" />
        </mxCell>
        <mxCell id="a0YVWdAsiKzPkVq9oQAb-175" value="4" style="ellipse;whiteSpace=wrap;html=1;aspect=fixed;" vertex="1" parent="1">
          <mxGeometry x="180" y="890" width="30" height="30" as="geometry" />
        </mxCell>
        <mxCell id="a0YVWdAsiKzPkVq9oQAb-176" style="edgeStyle=none;rounded=0;orthogonalLoop=1;jettySize=auto;html=1;exitX=1;exitY=1;exitDx=0;exitDy=0;" edge="1" parent="1" source="a0YVWdAsiKzPkVq9oQAb-174" target="a0YVWdAsiKzPkVq9oQAb-175">
          <mxGeometry relative="1" as="geometry" />
        </mxCell>
        <mxCell id="a0YVWdAsiKzPkVq9oQAb-177" value="3" style="ellipse;whiteSpace=wrap;html=1;aspect=fixed;" vertex="1" parent="1">
          <mxGeometry x="300" y="830" width="30" height="30" as="geometry" />
        </mxCell>
        <mxCell id="a0YVWdAsiKzPkVq9oQAb-178" value="5" style="ellipse;whiteSpace=wrap;html=1;aspect=fixed;" vertex="1" parent="1">
          <mxGeometry x="260" y="890" width="30" height="30" as="geometry" />
        </mxCell>
        <mxCell id="a0YVWdAsiKzPkVq9oQAb-179" style="edgeStyle=none;rounded=0;orthogonalLoop=1;jettySize=auto;html=1;exitX=0.307;exitY=0.944;exitDx=0;exitDy=0;entryX=0.772;entryY=0.044;entryDx=0;entryDy=0;entryPerimeter=0;exitPerimeter=0;" edge="1" parent="1" source="a0YVWdAsiKzPkVq9oQAb-177" target="a0YVWdAsiKzPkVq9oQAb-178">
          <mxGeometry relative="1" as="geometry" />
        </mxCell>
        <mxCell id="a0YVWdAsiKzPkVq9oQAb-180" value="6" style="ellipse;whiteSpace=wrap;html=1;aspect=fixed;" vertex="1" parent="1">
          <mxGeometry x="340" y="890" width="30" height="30" as="geometry" />
        </mxCell>
        <mxCell id="a0YVWdAsiKzPkVq9oQAb-181" style="edgeStyle=none;rounded=0;orthogonalLoop=1;jettySize=auto;html=1;exitX=1;exitY=1;exitDx=0;exitDy=0;entryX=0.339;entryY=0.055;entryDx=0;entryDy=0;entryPerimeter=0;" edge="1" parent="1" source="a0YVWdAsiKzPkVq9oQAb-177" target="a0YVWdAsiKzPkVq9oQAb-180">
          <mxGeometry relative="1" as="geometry" />
        </mxCell>
        <mxCell id="a0YVWdAsiKzPkVq9oQAb-182" style="rounded=0;orthogonalLoop=1;jettySize=auto;html=1;exitX=0;exitY=1;exitDx=0;exitDy=0;entryX=1;entryY=0;entryDx=0;entryDy=0;" edge="1" parent="1" source="a0YVWdAsiKzPkVq9oQAb-184" target="a0YVWdAsiKzPkVq9oQAb-174">
          <mxGeometry relative="1" as="geometry" />
        </mxCell>
        <mxCell id="a0YVWdAsiKzPkVq9oQAb-183" style="edgeStyle=none;rounded=0;orthogonalLoop=1;jettySize=auto;html=1;exitX=1;exitY=1;exitDx=0;exitDy=0;entryX=0;entryY=0;entryDx=0;entryDy=0;" edge="1" parent="1" source="a0YVWdAsiKzPkVq9oQAb-184" target="a0YVWdAsiKzPkVq9oQAb-177">
          <mxGeometry relative="1" as="geometry" />
        </mxCell>
        <mxCell id="a0YVWdAsiKzPkVq9oQAb-184" value="1" style="ellipse;whiteSpace=wrap;html=1;aspect=fixed;" vertex="1" parent="1">
          <mxGeometry x="220" y="740" width="30" height="30" as="geometry" />
        </mxCell>
        <mxCell id="a0YVWdAsiKzPkVq9oQAb-185" value="7" style="ellipse;whiteSpace=wrap;html=1;aspect=fixed;" vertex="1" parent="1">
          <mxGeometry x="230" y="950" width="30" height="30" as="geometry" />
        </mxCell>
        <mxCell id="a0YVWdAsiKzPkVq9oQAb-186" style="edgeStyle=none;rounded=0;orthogonalLoop=1;jettySize=auto;html=1;exitX=0;exitY=1;exitDx=0;exitDy=0;entryX=0.64;entryY=0.044;entryDx=0;entryDy=0;entryPerimeter=0;" edge="1" parent="1" source="a0YVWdAsiKzPkVq9oQAb-178" target="a0YVWdAsiKzPkVq9oQAb-185">
          <mxGeometry relative="1" as="geometry" />
        </mxCell>
        <mxCell id="a0YVWdAsiKzPkVq9oQAb-187" style="edgeStyle=none;rounded=0;jumpStyle=gap;orthogonalLoop=1;jettySize=auto;html=1;exitX=1;exitY=1;exitDx=0;exitDy=0;entryX=0;entryY=0.5;entryDx=0;entryDy=0;fontSize=14;fillColor=#f8cecc;strokeColor=#b85450;" edge="1" parent="1" source="a0YVWdAsiKzPkVq9oQAb-188" target="a0YVWdAsiKzPkVq9oQAb-175">
          <mxGeometry relative="1" as="geometry" />
        </mxCell>
        <mxCell id="a0YVWdAsiKzPkVq9oQAb-188" value="dum" style="ellipse;whiteSpace=wrap;html=1;aspect=fixed;align=center;fontSize=12;fillColor=#dae8fc;strokeColor=#6c8ebf;" vertex="1" parent="1">
          <mxGeometry x="45" y="880" width="30" height="30" as="geometry" />
        </mxCell>
        <mxCell id="a0YVWdAsiKzPkVq9oQAb-189" style="edgeStyle=none;rounded=0;orthogonalLoop=1;jettySize=auto;html=1;fontSize=12;dashed=1;entryX=-0.061;entryY=0.758;entryDx=0;entryDy=0;entryPerimeter=0;" edge="1" parent="1" source="a0YVWdAsiKzPkVq9oQAb-190" target="a0YVWdAsiKzPkVq9oQAb-178">
          <mxGeometry relative="1" as="geometry">
            <mxPoint x="65.5" y="830" as="targetPoint" />
          </mxGeometry>
        </mxCell>
        <mxCell id="a0YVWdAsiKzPkVq9oQAb-190" value="pre" style="text;html=1;strokeColor=none;fillColor=none;align=center;verticalAlign=middle;whiteSpace=wrap;rounded=0;fontSize=12;fontStyle=0" vertex="1" parent="1">
          <mxGeometry x="55" y="970" width="20" height="10" as="geometry" />
        </mxCell>
        <mxCell id="a0YVWdAsiKzPkVq9oQAb-191" value="cur" style="text;html=1;strokeColor=none;fillColor=none;align=center;verticalAlign=middle;whiteSpace=wrap;rounded=0;fontSize=12;" vertex="1" parent="1">
          <mxGeometry x="130" y="750" width="20" height="10" as="geometry" />
        </mxCell>
        <mxCell id="a0YVWdAsiKzPkVq9oQAb-192" value="nil" style="text;html=1;strokeColor=none;fillColor=none;align=center;verticalAlign=middle;whiteSpace=wrap;rounded=0;fontSize=14;" vertex="1" parent="1">
          <mxGeometry x="330" y="745" width="22" height="20" as="geometry" />
        </mxCell>
        <mxCell id="a0YVWdAsiKzPkVq9oQAb-193" style="edgeStyle=none;rounded=0;jumpStyle=gap;orthogonalLoop=1;jettySize=auto;html=1;fontSize=14;" edge="1" parent="1" source="a0YVWdAsiKzPkVq9oQAb-184">
          <mxGeometry relative="1" as="geometry">
            <mxPoint x="326.5" y="755" as="targetPoint" />
          </mxGeometry>
        </mxCell>
        <mxCell id="a0YVWdAsiKzPkVq9oQAb-194" style="rounded=0;jumpStyle=gap;orthogonalLoop=1;jettySize=auto;html=1;fontSize=14;dashed=1;entryX=-0.121;entryY=0.303;entryDx=0;entryDy=0;entryPerimeter=0;" edge="1" parent="1" source="a0YVWdAsiKzPkVq9oQAb-191" target="a0YVWdAsiKzPkVq9oQAb-177">
          <mxGeometry relative="1" as="geometry">
            <mxPoint x="290" y="830" as="targetPoint" />
          </mxGeometry>
        </mxCell>
        <mxCell id="a0YVWdAsiKzPkVq9oQAb-195" value="" style="shape=flexArrow;endArrow=classic;html=1;rounded=0;fontSize=14;jumpStyle=gap;" edge="1" parent="1">
          <mxGeometry width="50" height="50" relative="1" as="geometry">
            <mxPoint x="200" y="640" as="sourcePoint" />
            <mxPoint x="200" y="690" as="targetPoint" />
          </mxGeometry>
        </mxCell>
        <mxCell id="a0YVWdAsiKzPkVq9oQAb-198" style="edgeStyle=none;rounded=0;orthogonalLoop=1;jettySize=auto;html=1;entryX=0;entryY=0.5;entryDx=0;entryDy=0;fontSize=14;fillColor=#f8cecc;strokeColor=#b85450;" edge="1" parent="1" source="a0YVWdAsiKzPkVq9oQAb-199" target="a0YVWdAsiKzPkVq9oQAb-203">
          <mxGeometry relative="1" as="geometry" />
        </mxCell>
        <mxCell id="a0YVWdAsiKzPkVq9oQAb-199" value="2" style="ellipse;whiteSpace=wrap;html=1;aspect=fixed;" vertex="1" parent="1">
          <mxGeometry x="618" y="840" width="30" height="30" as="geometry" />
        </mxCell>
        <mxCell id="a0YVWdAsiKzPkVq9oQAb-200" style="edgeStyle=orthogonalEdgeStyle;curved=1;rounded=0;jumpStyle=gap;orthogonalLoop=1;jettySize=auto;html=1;exitX=1;exitY=0.5;exitDx=0;exitDy=0;entryX=0;entryY=0.5;entryDx=0;entryDy=0;fontSize=14;fillColor=#f8cecc;strokeColor=#b85450;" edge="1" parent="1" source="a0YVWdAsiKzPkVq9oQAb-201" target="a0YVWdAsiKzPkVq9oQAb-204">
          <mxGeometry relative="1" as="geometry" />
        </mxCell>
        <mxCell id="a0YVWdAsiKzPkVq9oQAb-201" value="4" style="ellipse;whiteSpace=wrap;html=1;aspect=fixed;" vertex="1" parent="1">
          <mxGeometry x="658" y="900" width="30" height="30" as="geometry" />
        </mxCell>
        <mxCell id="a0YVWdAsiKzPkVq9oQAb-202" style="edgeStyle=none;rounded=0;orthogonalLoop=1;jettySize=auto;html=1;exitX=1;exitY=1;exitDx=0;exitDy=0;" edge="1" parent="1" source="a0YVWdAsiKzPkVq9oQAb-199" target="a0YVWdAsiKzPkVq9oQAb-201">
          <mxGeometry relative="1" as="geometry" />
        </mxCell>
        <mxCell id="a0YVWdAsiKzPkVq9oQAb-203" value="3" style="ellipse;whiteSpace=wrap;html=1;aspect=fixed;" vertex="1" parent="1">
          <mxGeometry x="778" y="840" width="30" height="30" as="geometry" />
        </mxCell>
        <mxCell id="a0YVWdAsiKzPkVq9oQAb-250" style="edgeStyle=none;rounded=0;jumpStyle=gap;orthogonalLoop=1;jettySize=auto;html=1;exitX=1;exitY=0.5;exitDx=0;exitDy=0;entryX=0;entryY=0.5;entryDx=0;entryDy=0;fontSize=14;fillColor=#f8cecc;strokeColor=#b85450;" edge="1" parent="1" source="a0YVWdAsiKzPkVq9oQAb-204" target="a0YVWdAsiKzPkVq9oQAb-206">
          <mxGeometry relative="1" as="geometry" />
        </mxCell>
        <mxCell id="a0YVWdAsiKzPkVq9oQAb-204" value="5" style="ellipse;whiteSpace=wrap;html=1;aspect=fixed;" vertex="1" parent="1">
          <mxGeometry x="738" y="900" width="30" height="30" as="geometry" />
        </mxCell>
        <mxCell id="a0YVWdAsiKzPkVq9oQAb-205" style="edgeStyle=none;rounded=0;orthogonalLoop=1;jettySize=auto;html=1;exitX=0.307;exitY=0.944;exitDx=0;exitDy=0;entryX=0.772;entryY=0.044;entryDx=0;entryDy=0;entryPerimeter=0;exitPerimeter=0;" edge="1" parent="1" source="a0YVWdAsiKzPkVq9oQAb-203" target="a0YVWdAsiKzPkVq9oQAb-204">
          <mxGeometry relative="1" as="geometry" />
        </mxCell>
        <mxCell id="a0YVWdAsiKzPkVq9oQAb-206" value="6" style="ellipse;whiteSpace=wrap;html=1;aspect=fixed;" vertex="1" parent="1">
          <mxGeometry x="818" y="900" width="30" height="30" as="geometry" />
        </mxCell>
        <mxCell id="a0YVWdAsiKzPkVq9oQAb-207" style="edgeStyle=none;rounded=0;orthogonalLoop=1;jettySize=auto;html=1;exitX=1;exitY=1;exitDx=0;exitDy=0;entryX=0.339;entryY=0.055;entryDx=0;entryDy=0;entryPerimeter=0;" edge="1" parent="1" source="a0YVWdAsiKzPkVq9oQAb-203" target="a0YVWdAsiKzPkVq9oQAb-206">
          <mxGeometry relative="1" as="geometry" />
        </mxCell>
        <mxCell id="a0YVWdAsiKzPkVq9oQAb-208" style="rounded=0;orthogonalLoop=1;jettySize=auto;html=1;exitX=0;exitY=1;exitDx=0;exitDy=0;entryX=1;entryY=0;entryDx=0;entryDy=0;" edge="1" parent="1" source="a0YVWdAsiKzPkVq9oQAb-210" target="a0YVWdAsiKzPkVq9oQAb-199">
          <mxGeometry relative="1" as="geometry" />
        </mxCell>
        <mxCell id="a0YVWdAsiKzPkVq9oQAb-209" style="edgeStyle=none;rounded=0;orthogonalLoop=1;jettySize=auto;html=1;exitX=1;exitY=1;exitDx=0;exitDy=0;entryX=0;entryY=0;entryDx=0;entryDy=0;" edge="1" parent="1" source="a0YVWdAsiKzPkVq9oQAb-210" target="a0YVWdAsiKzPkVq9oQAb-203">
          <mxGeometry relative="1" as="geometry" />
        </mxCell>
        <mxCell id="a0YVWdAsiKzPkVq9oQAb-210" value="1" style="ellipse;whiteSpace=wrap;html=1;aspect=fixed;" vertex="1" parent="1">
          <mxGeometry x="698" y="750" width="30" height="30" as="geometry" />
        </mxCell>
        <mxCell id="a0YVWdAsiKzPkVq9oQAb-211" value="7" style="ellipse;whiteSpace=wrap;html=1;aspect=fixed;" vertex="1" parent="1">
          <mxGeometry x="708" y="960" width="30" height="30" as="geometry" />
        </mxCell>
        <mxCell id="a0YVWdAsiKzPkVq9oQAb-212" style="edgeStyle=none;rounded=0;orthogonalLoop=1;jettySize=auto;html=1;exitX=0;exitY=1;exitDx=0;exitDy=0;entryX=0.64;entryY=0.044;entryDx=0;entryDy=0;entryPerimeter=0;" edge="1" parent="1" source="a0YVWdAsiKzPkVq9oQAb-204" target="a0YVWdAsiKzPkVq9oQAb-211">
          <mxGeometry relative="1" as="geometry" />
        </mxCell>
        <mxCell id="a0YVWdAsiKzPkVq9oQAb-213" style="edgeStyle=none;rounded=0;jumpStyle=gap;orthogonalLoop=1;jettySize=auto;html=1;exitX=1;exitY=1;exitDx=0;exitDy=0;entryX=0;entryY=0.5;entryDx=0;entryDy=0;fontSize=14;fillColor=#f8cecc;strokeColor=#b85450;" edge="1" parent="1" source="a0YVWdAsiKzPkVq9oQAb-214" target="a0YVWdAsiKzPkVq9oQAb-201">
          <mxGeometry relative="1" as="geometry" />
        </mxCell>
        <mxCell id="a0YVWdAsiKzPkVq9oQAb-214" value="dum" style="ellipse;whiteSpace=wrap;html=1;aspect=fixed;align=center;fontSize=12;fillColor=#dae8fc;strokeColor=#6c8ebf;" vertex="1" parent="1">
          <mxGeometry x="523" y="890" width="30" height="30" as="geometry" />
        </mxCell>
        <mxCell id="a0YVWdAsiKzPkVq9oQAb-215" style="edgeStyle=none;rounded=0;orthogonalLoop=1;jettySize=auto;html=1;fontSize=12;dashed=1;entryX=0;entryY=1;entryDx=0;entryDy=0;" edge="1" parent="1" source="a0YVWdAsiKzPkVq9oQAb-216" target="a0YVWdAsiKzPkVq9oQAb-206">
          <mxGeometry relative="1" as="geometry">
            <mxPoint x="543.5" y="840" as="targetPoint" />
          </mxGeometry>
        </mxCell>
        <mxCell id="a0YVWdAsiKzPkVq9oQAb-216" value="pre" style="text;html=1;strokeColor=none;fillColor=none;align=center;verticalAlign=middle;whiteSpace=wrap;rounded=0;fontSize=12;fontStyle=0" vertex="1" parent="1">
          <mxGeometry x="533" y="980" width="20" height="10" as="geometry" />
        </mxCell>
        <mxCell id="a0YVWdAsiKzPkVq9oQAb-249" style="rounded=0;jumpStyle=gap;orthogonalLoop=1;jettySize=auto;html=1;exitX=1;exitY=0.75;exitDx=0;exitDy=0;fontSize=14;dashed=1;" edge="1" parent="1" source="a0YVWdAsiKzPkVq9oQAb-217" target="a0YVWdAsiKzPkVq9oQAb-203">
          <mxGeometry relative="1" as="geometry" />
        </mxCell>
        <mxCell id="a0YVWdAsiKzPkVq9oQAb-217" value="cur" style="text;html=1;strokeColor=none;fillColor=none;align=center;verticalAlign=middle;whiteSpace=wrap;rounded=0;fontSize=12;" vertex="1" parent="1">
          <mxGeometry x="528" y="765" width="20" height="10" as="geometry" />
        </mxCell>
        <mxCell id="a0YVWdAsiKzPkVq9oQAb-221" value="" style="shape=flexArrow;endArrow=classic;html=1;rounded=0;fontSize=14;curved=1;jumpStyle=gap;" edge="1" parent="1">
          <mxGeometry width="50" height="50" relative="1" as="geometry">
            <mxPoint x="420" y="844.2299999999999" as="sourcePoint" />
            <mxPoint x="490" y="844.2299999999999" as="targetPoint" />
          </mxGeometry>
        </mxCell>
        <mxCell id="a0YVWdAsiKzPkVq9oQAb-225" style="edgeStyle=none;rounded=0;orthogonalLoop=1;jettySize=auto;html=1;entryX=0;entryY=0.5;entryDx=0;entryDy=0;fontSize=14;fillColor=#f8cecc;strokeColor=#b85450;" edge="1" parent="1" source="a0YVWdAsiKzPkVq9oQAb-226" target="a0YVWdAsiKzPkVq9oQAb-231">
          <mxGeometry relative="1" as="geometry" />
        </mxCell>
        <mxCell id="a0YVWdAsiKzPkVq9oQAb-226" value="2" style="ellipse;whiteSpace=wrap;html=1;aspect=fixed;" vertex="1" parent="1">
          <mxGeometry x="1100" y="840" width="30" height="30" as="geometry" />
        </mxCell>
        <mxCell id="a0YVWdAsiKzPkVq9oQAb-227" style="edgeStyle=orthogonalEdgeStyle;curved=1;rounded=0;jumpStyle=gap;orthogonalLoop=1;jettySize=auto;html=1;exitX=1;exitY=0.5;exitDx=0;exitDy=0;entryX=0;entryY=0.5;entryDx=0;entryDy=0;fontSize=14;fillColor=#f8cecc;strokeColor=#b85450;" edge="1" parent="1" source="a0YVWdAsiKzPkVq9oQAb-228" target="a0YVWdAsiKzPkVq9oQAb-232">
          <mxGeometry relative="1" as="geometry" />
        </mxCell>
        <mxCell id="a0YVWdAsiKzPkVq9oQAb-228" value="4" style="ellipse;whiteSpace=wrap;html=1;aspect=fixed;" vertex="1" parent="1">
          <mxGeometry x="1140" y="900" width="30" height="30" as="geometry" />
        </mxCell>
        <mxCell id="a0YVWdAsiKzPkVq9oQAb-229" style="edgeStyle=none;rounded=0;orthogonalLoop=1;jettySize=auto;html=1;exitX=1;exitY=1;exitDx=0;exitDy=0;" edge="1" parent="1" source="a0YVWdAsiKzPkVq9oQAb-226" target="a0YVWdAsiKzPkVq9oQAb-228">
          <mxGeometry relative="1" as="geometry" />
        </mxCell>
        <mxCell id="a0YVWdAsiKzPkVq9oQAb-230" style="edgeStyle=orthogonalEdgeStyle;curved=1;rounded=0;jumpStyle=gap;orthogonalLoop=1;jettySize=auto;html=1;exitX=1;exitY=0.5;exitDx=0;exitDy=0;fontSize=14;" edge="1" parent="1" source="a0YVWdAsiKzPkVq9oQAb-231" target="a0YVWdAsiKzPkVq9oQAb-246">
          <mxGeometry relative="1" as="geometry" />
        </mxCell>
        <mxCell id="a0YVWdAsiKzPkVq9oQAb-231" value="3" style="ellipse;whiteSpace=wrap;html=1;aspect=fixed;" vertex="1" parent="1">
          <mxGeometry x="1260" y="840" width="30" height="30" as="geometry" />
        </mxCell>
        <mxCell id="a0YVWdAsiKzPkVq9oQAb-251" style="edgeStyle=none;rounded=0;jumpStyle=gap;orthogonalLoop=1;jettySize=auto;html=1;exitX=1;exitY=0.5;exitDx=0;exitDy=0;entryX=0;entryY=0.5;entryDx=0;entryDy=0;fontSize=14;fillColor=#f8cecc;strokeColor=#b85450;" edge="1" parent="1" source="a0YVWdAsiKzPkVq9oQAb-232" target="a0YVWdAsiKzPkVq9oQAb-234">
          <mxGeometry relative="1" as="geometry" />
        </mxCell>
        <mxCell id="a0YVWdAsiKzPkVq9oQAb-232" value="5" style="ellipse;whiteSpace=wrap;html=1;aspect=fixed;" vertex="1" parent="1">
          <mxGeometry x="1220" y="900" width="30" height="30" as="geometry" />
        </mxCell>
        <mxCell id="a0YVWdAsiKzPkVq9oQAb-233" style="edgeStyle=none;rounded=0;orthogonalLoop=1;jettySize=auto;html=1;exitX=0.307;exitY=0.944;exitDx=0;exitDy=0;entryX=0.772;entryY=0.044;entryDx=0;entryDy=0;entryPerimeter=0;exitPerimeter=0;" edge="1" parent="1" source="a0YVWdAsiKzPkVq9oQAb-231" target="a0YVWdAsiKzPkVq9oQAb-232">
          <mxGeometry relative="1" as="geometry" />
        </mxCell>
        <mxCell id="a0YVWdAsiKzPkVq9oQAb-234" value="6" style="ellipse;whiteSpace=wrap;html=1;aspect=fixed;" vertex="1" parent="1">
          <mxGeometry x="1300" y="900" width="30" height="30" as="geometry" />
        </mxCell>
        <mxCell id="a0YVWdAsiKzPkVq9oQAb-235" style="edgeStyle=none;rounded=0;orthogonalLoop=1;jettySize=auto;html=1;exitX=1;exitY=1;exitDx=0;exitDy=0;entryX=0.339;entryY=0.055;entryDx=0;entryDy=0;entryPerimeter=0;" edge="1" parent="1" source="a0YVWdAsiKzPkVq9oQAb-231" target="a0YVWdAsiKzPkVq9oQAb-234">
          <mxGeometry relative="1" as="geometry" />
        </mxCell>
        <mxCell id="a0YVWdAsiKzPkVq9oQAb-236" style="rounded=0;orthogonalLoop=1;jettySize=auto;html=1;exitX=0;exitY=1;exitDx=0;exitDy=0;entryX=1;entryY=0;entryDx=0;entryDy=0;" edge="1" parent="1" source="a0YVWdAsiKzPkVq9oQAb-238" target="a0YVWdAsiKzPkVq9oQAb-226">
          <mxGeometry relative="1" as="geometry" />
        </mxCell>
        <mxCell id="a0YVWdAsiKzPkVq9oQAb-237" style="edgeStyle=none;rounded=0;orthogonalLoop=1;jettySize=auto;html=1;exitX=1;exitY=1;exitDx=0;exitDy=0;entryX=0;entryY=0;entryDx=0;entryDy=0;" edge="1" parent="1" source="a0YVWdAsiKzPkVq9oQAb-238" target="a0YVWdAsiKzPkVq9oQAb-231">
          <mxGeometry relative="1" as="geometry" />
        </mxCell>
        <mxCell id="a0YVWdAsiKzPkVq9oQAb-238" value="1" style="ellipse;whiteSpace=wrap;html=1;aspect=fixed;" vertex="1" parent="1">
          <mxGeometry x="1180" y="750" width="30" height="30" as="geometry" />
        </mxCell>
        <mxCell id="a0YVWdAsiKzPkVq9oQAb-239" value="7" style="ellipse;whiteSpace=wrap;html=1;aspect=fixed;" vertex="1" parent="1">
          <mxGeometry x="1190" y="960" width="30" height="30" as="geometry" />
        </mxCell>
        <mxCell id="a0YVWdAsiKzPkVq9oQAb-240" style="edgeStyle=none;rounded=0;orthogonalLoop=1;jettySize=auto;html=1;exitX=0;exitY=1;exitDx=0;exitDy=0;entryX=0.64;entryY=0.044;entryDx=0;entryDy=0;entryPerimeter=0;" edge="1" parent="1" source="a0YVWdAsiKzPkVq9oQAb-232" target="a0YVWdAsiKzPkVq9oQAb-239">
          <mxGeometry relative="1" as="geometry" />
        </mxCell>
        <mxCell id="a0YVWdAsiKzPkVq9oQAb-241" style="edgeStyle=none;rounded=0;jumpStyle=gap;orthogonalLoop=1;jettySize=auto;html=1;exitX=1;exitY=1;exitDx=0;exitDy=0;entryX=0;entryY=0.5;entryDx=0;entryDy=0;fontSize=14;fillColor=#f8cecc;strokeColor=#b85450;" edge="1" parent="1" source="a0YVWdAsiKzPkVq9oQAb-242" target="a0YVWdAsiKzPkVq9oQAb-228">
          <mxGeometry relative="1" as="geometry" />
        </mxCell>
        <mxCell id="a0YVWdAsiKzPkVq9oQAb-242" value="dum" style="ellipse;whiteSpace=wrap;html=1;aspect=fixed;align=center;fontSize=12;fillColor=#dae8fc;strokeColor=#6c8ebf;" vertex="1" parent="1">
          <mxGeometry x="1005" y="890" width="30" height="30" as="geometry" />
        </mxCell>
        <mxCell id="a0YVWdAsiKzPkVq9oQAb-243" style="edgeStyle=none;rounded=0;orthogonalLoop=1;jettySize=auto;html=1;fontSize=12;dashed=1;entryX=0;entryY=1;entryDx=0;entryDy=0;" edge="1" parent="1" source="a0YVWdAsiKzPkVq9oQAb-244" target="a0YVWdAsiKzPkVq9oQAb-234">
          <mxGeometry relative="1" as="geometry">
            <mxPoint x="1025.5" y="840" as="targetPoint" />
          </mxGeometry>
        </mxCell>
        <mxCell id="a0YVWdAsiKzPkVq9oQAb-244" value="pre" style="text;html=1;strokeColor=none;fillColor=none;align=center;verticalAlign=middle;whiteSpace=wrap;rounded=0;fontSize=12;fontStyle=0" vertex="1" parent="1">
          <mxGeometry x="1015" y="980" width="20" height="10" as="geometry" />
        </mxCell>
        <mxCell id="a0YVWdAsiKzPkVq9oQAb-245" value="cur" style="text;html=1;strokeColor=none;fillColor=none;align=center;verticalAlign=middle;whiteSpace=wrap;rounded=0;fontSize=12;" vertex="1" parent="1">
          <mxGeometry x="1010" y="765" width="20" height="10" as="geometry" />
        </mxCell>
        <mxCell id="a0YVWdAsiKzPkVq9oQAb-246" value="nil" style="text;html=1;strokeColor=none;fillColor=none;align=center;verticalAlign=middle;whiteSpace=wrap;rounded=0;fontSize=14;" vertex="1" parent="1">
          <mxGeometry x="1355" y="845" width="22" height="20" as="geometry" />
        </mxCell>
        <mxCell id="a0YVWdAsiKzPkVq9oQAb-247" style="rounded=0;jumpStyle=gap;orthogonalLoop=1;jettySize=auto;html=1;fontSize=14;dashed=1;entryX=0.5;entryY=0;entryDx=0;entryDy=0;edgeStyle=orthogonalEdgeStyle;" edge="1" parent="1" source="a0YVWdAsiKzPkVq9oQAb-245" target="a0YVWdAsiKzPkVq9oQAb-246">
          <mxGeometry relative="1" as="geometry">
            <mxPoint x="1250" y="840" as="targetPoint" />
            <Array as="points">
              <mxPoint x="1020" y="720" />
              <mxPoint x="1366" y="720" />
            </Array>
          </mxGeometry>
        </mxCell>
        <mxCell id="a0YVWdAsiKzPkVq9oQAb-248" value="" style="shape=flexArrow;endArrow=classic;html=1;rounded=0;fontSize=14;curved=1;jumpStyle=gap;" edge="1" parent="1">
          <mxGeometry width="50" height="50" relative="1" as="geometry">
            <mxPoint x="920" y="840.0000000000002" as="sourcePoint" />
            <mxPoint x="990" y="840.0000000000002" as="targetPoint" />
          </mxGeometry>
        </mxCell>
        <mxCell id="a0YVWdAsiKzPkVq9oQAb-252" style="edgeStyle=none;rounded=0;orthogonalLoop=1;jettySize=auto;html=1;entryX=0;entryY=0.5;entryDx=0;entryDy=0;fontSize=14;fillColor=#f8cecc;strokeColor=#b85450;" edge="1" parent="1" source="a0YVWdAsiKzPkVq9oQAb-253" target="a0YVWdAsiKzPkVq9oQAb-258">
          <mxGeometry relative="1" as="geometry" />
        </mxCell>
        <mxCell id="a0YVWdAsiKzPkVq9oQAb-253" value="2" style="ellipse;whiteSpace=wrap;html=1;aspect=fixed;" vertex="1" parent="1">
          <mxGeometry x="1100" y="1192" width="30" height="30" as="geometry" />
        </mxCell>
        <mxCell id="a0YVWdAsiKzPkVq9oQAb-254" style="edgeStyle=orthogonalEdgeStyle;curved=1;rounded=0;jumpStyle=gap;orthogonalLoop=1;jettySize=auto;html=1;exitX=1;exitY=0.5;exitDx=0;exitDy=0;entryX=0;entryY=0.5;entryDx=0;entryDy=0;fontSize=14;fillColor=#f8cecc;strokeColor=#b85450;" edge="1" parent="1" source="a0YVWdAsiKzPkVq9oQAb-255" target="a0YVWdAsiKzPkVq9oQAb-260">
          <mxGeometry relative="1" as="geometry" />
        </mxCell>
        <mxCell id="a0YVWdAsiKzPkVq9oQAb-255" value="4" style="ellipse;whiteSpace=wrap;html=1;aspect=fixed;" vertex="1" parent="1">
          <mxGeometry x="1140" y="1252" width="30" height="30" as="geometry" />
        </mxCell>
        <mxCell id="a0YVWdAsiKzPkVq9oQAb-256" style="edgeStyle=none;rounded=0;orthogonalLoop=1;jettySize=auto;html=1;exitX=1;exitY=1;exitDx=0;exitDy=0;" edge="1" parent="1" source="a0YVWdAsiKzPkVq9oQAb-253" target="a0YVWdAsiKzPkVq9oQAb-255">
          <mxGeometry relative="1" as="geometry" />
        </mxCell>
        <mxCell id="a0YVWdAsiKzPkVq9oQAb-257" style="edgeStyle=orthogonalEdgeStyle;curved=1;rounded=0;jumpStyle=gap;orthogonalLoop=1;jettySize=auto;html=1;exitX=1;exitY=0.5;exitDx=0;exitDy=0;fontSize=14;" edge="1" parent="1" source="a0YVWdAsiKzPkVq9oQAb-258" target="a0YVWdAsiKzPkVq9oQAb-274">
          <mxGeometry relative="1" as="geometry" />
        </mxCell>
        <mxCell id="a0YVWdAsiKzPkVq9oQAb-258" value="3" style="ellipse;whiteSpace=wrap;html=1;aspect=fixed;" vertex="1" parent="1">
          <mxGeometry x="1260" y="1192" width="30" height="30" as="geometry" />
        </mxCell>
        <mxCell id="a0YVWdAsiKzPkVq9oQAb-259" style="edgeStyle=none;rounded=0;jumpStyle=gap;orthogonalLoop=1;jettySize=auto;html=1;exitX=1;exitY=0.5;exitDx=0;exitDy=0;entryX=0;entryY=0.5;entryDx=0;entryDy=0;fontSize=14;fillColor=#f8cecc;strokeColor=#b85450;" edge="1" parent="1" source="a0YVWdAsiKzPkVq9oQAb-260" target="a0YVWdAsiKzPkVq9oQAb-262">
          <mxGeometry relative="1" as="geometry" />
        </mxCell>
        <mxCell id="a0YVWdAsiKzPkVq9oQAb-260" value="5" style="ellipse;whiteSpace=wrap;html=1;aspect=fixed;" vertex="1" parent="1">
          <mxGeometry x="1220" y="1252" width="30" height="30" as="geometry" />
        </mxCell>
        <mxCell id="a0YVWdAsiKzPkVq9oQAb-261" style="edgeStyle=none;rounded=0;orthogonalLoop=1;jettySize=auto;html=1;exitX=0.307;exitY=0.944;exitDx=0;exitDy=0;entryX=0.772;entryY=0.044;entryDx=0;entryDy=0;entryPerimeter=0;exitPerimeter=0;" edge="1" parent="1" source="a0YVWdAsiKzPkVq9oQAb-258" target="a0YVWdAsiKzPkVq9oQAb-260">
          <mxGeometry relative="1" as="geometry" />
        </mxCell>
        <mxCell id="a0YVWdAsiKzPkVq9oQAb-262" value="6" style="ellipse;whiteSpace=wrap;html=1;aspect=fixed;" vertex="1" parent="1">
          <mxGeometry x="1300" y="1252" width="30" height="30" as="geometry" />
        </mxCell>
        <mxCell id="a0YVWdAsiKzPkVq9oQAb-263" style="edgeStyle=none;rounded=0;orthogonalLoop=1;jettySize=auto;html=1;exitX=1;exitY=1;exitDx=0;exitDy=0;entryX=0.339;entryY=0.055;entryDx=0;entryDy=0;entryPerimeter=0;" edge="1" parent="1" source="a0YVWdAsiKzPkVq9oQAb-258" target="a0YVWdAsiKzPkVq9oQAb-262">
          <mxGeometry relative="1" as="geometry" />
        </mxCell>
        <mxCell id="a0YVWdAsiKzPkVq9oQAb-264" style="rounded=0;orthogonalLoop=1;jettySize=auto;html=1;exitX=0;exitY=1;exitDx=0;exitDy=0;entryX=1;entryY=0;entryDx=0;entryDy=0;" edge="1" parent="1" source="a0YVWdAsiKzPkVq9oQAb-266" target="a0YVWdAsiKzPkVq9oQAb-253">
          <mxGeometry relative="1" as="geometry" />
        </mxCell>
        <mxCell id="a0YVWdAsiKzPkVq9oQAb-265" style="edgeStyle=none;rounded=0;orthogonalLoop=1;jettySize=auto;html=1;exitX=1;exitY=1;exitDx=0;exitDy=0;entryX=0;entryY=0;entryDx=0;entryDy=0;" edge="1" parent="1" source="a0YVWdAsiKzPkVq9oQAb-266" target="a0YVWdAsiKzPkVq9oQAb-258">
          <mxGeometry relative="1" as="geometry" />
        </mxCell>
        <mxCell id="a0YVWdAsiKzPkVq9oQAb-266" value="1" style="ellipse;whiteSpace=wrap;html=1;aspect=fixed;" vertex="1" parent="1">
          <mxGeometry x="1180" y="1102" width="30" height="30" as="geometry" />
        </mxCell>
        <mxCell id="a0YVWdAsiKzPkVq9oQAb-267" value="7" style="ellipse;whiteSpace=wrap;html=1;aspect=fixed;" vertex="1" parent="1">
          <mxGeometry x="1190" y="1312" width="30" height="30" as="geometry" />
        </mxCell>
        <mxCell id="a0YVWdAsiKzPkVq9oQAb-268" style="edgeStyle=none;rounded=0;orthogonalLoop=1;jettySize=auto;html=1;exitX=0;exitY=1;exitDx=0;exitDy=0;entryX=0.64;entryY=0.044;entryDx=0;entryDy=0;entryPerimeter=0;" edge="1" parent="1" source="a0YVWdAsiKzPkVq9oQAb-260" target="a0YVWdAsiKzPkVq9oQAb-267">
          <mxGeometry relative="1" as="geometry" />
        </mxCell>
        <mxCell id="a0YVWdAsiKzPkVq9oQAb-270" value="dum" style="ellipse;whiteSpace=wrap;html=1;aspect=fixed;align=center;fontSize=12;fillColor=#dae8fc;strokeColor=#6c8ebf;" vertex="1" parent="1">
          <mxGeometry x="1005" y="1242" width="30" height="30" as="geometry" />
        </mxCell>
        <mxCell id="a0YVWdAsiKzPkVq9oQAb-271" style="edgeStyle=none;rounded=0;orthogonalLoop=1;jettySize=auto;html=1;fontSize=12;dashed=1;" edge="1" parent="1" source="a0YVWdAsiKzPkVq9oQAb-272">
          <mxGeometry relative="1" as="geometry">
            <mxPoint x="1021" y="1277" as="targetPoint" />
          </mxGeometry>
        </mxCell>
        <mxCell id="a0YVWdAsiKzPkVq9oQAb-272" value="pre" style="text;html=1;strokeColor=none;fillColor=none;align=center;verticalAlign=middle;whiteSpace=wrap;rounded=0;fontSize=12;fontStyle=0" vertex="1" parent="1">
          <mxGeometry x="1011" y="1327" width="20" height="10" as="geometry" />
        </mxCell>
        <mxCell id="a0YVWdAsiKzPkVq9oQAb-277" style="edgeStyle=none;rounded=0;jumpStyle=gap;orthogonalLoop=1;jettySize=auto;html=1;exitX=0.75;exitY=1;exitDx=0;exitDy=0;entryX=0;entryY=0.333;entryDx=0;entryDy=0;fontSize=14;entryPerimeter=0;dashed=1;" edge="1" parent="1" source="a0YVWdAsiKzPkVq9oQAb-273" target="a0YVWdAsiKzPkVq9oQAb-255">
          <mxGeometry relative="1" as="geometry" />
        </mxCell>
        <mxCell id="a0YVWdAsiKzPkVq9oQAb-273" value="cur" style="text;html=1;strokeColor=none;fillColor=none;align=center;verticalAlign=middle;whiteSpace=wrap;rounded=0;fontSize=12;" vertex="1" parent="1">
          <mxGeometry x="1005" y="1162" width="20" height="10" as="geometry" />
        </mxCell>
        <mxCell id="a0YVWdAsiKzPkVq9oQAb-274" value="nil" style="text;html=1;strokeColor=none;fillColor=none;align=center;verticalAlign=middle;whiteSpace=wrap;rounded=0;fontSize=14;" vertex="1" parent="1">
          <mxGeometry x="1355" y="1197" width="22" height="20" as="geometry" />
        </mxCell>
        <mxCell id="a0YVWdAsiKzPkVq9oQAb-280" value="" style="shape=flexArrow;endArrow=classic;html=1;rounded=0;fontSize=14;curved=1;jumpStyle=gap;" edge="1" parent="1">
          <mxGeometry width="50" height="50" relative="1" as="geometry">
            <mxPoint x="1194.58" y="1020" as="sourcePoint" />
            <mxPoint x="1195" y="1070" as="targetPoint" />
          </mxGeometry>
        </mxCell>
        <mxCell id="a0YVWdAsiKzPkVq9oQAb-281" style="edgeStyle=none;rounded=0;orthogonalLoop=1;jettySize=auto;html=1;entryX=0;entryY=0.5;entryDx=0;entryDy=0;fontSize=14;fillColor=#f8cecc;strokeColor=#b85450;" edge="1" parent="1" source="a0YVWdAsiKzPkVq9oQAb-282" target="a0YVWdAsiKzPkVq9oQAb-287">
          <mxGeometry relative="1" as="geometry" />
        </mxCell>
        <mxCell id="a0YVWdAsiKzPkVq9oQAb-282" value="2" style="ellipse;whiteSpace=wrap;html=1;aspect=fixed;" vertex="1" parent="1">
          <mxGeometry x="622" y="1210" width="30" height="30" as="geometry" />
        </mxCell>
        <mxCell id="a0YVWdAsiKzPkVq9oQAb-283" style="edgeStyle=orthogonalEdgeStyle;curved=1;rounded=0;jumpStyle=gap;orthogonalLoop=1;jettySize=auto;html=1;exitX=1;exitY=0.5;exitDx=0;exitDy=0;entryX=0;entryY=0.5;entryDx=0;entryDy=0;fontSize=14;fillColor=#f8cecc;strokeColor=#b85450;" edge="1" parent="1" source="a0YVWdAsiKzPkVq9oQAb-284" target="a0YVWdAsiKzPkVq9oQAb-289">
          <mxGeometry relative="1" as="geometry" />
        </mxCell>
        <mxCell id="a0YVWdAsiKzPkVq9oQAb-284" value="4" style="ellipse;whiteSpace=wrap;html=1;aspect=fixed;" vertex="1" parent="1">
          <mxGeometry x="662" y="1270" width="30" height="30" as="geometry" />
        </mxCell>
        <mxCell id="a0YVWdAsiKzPkVq9oQAb-285" style="edgeStyle=none;rounded=0;orthogonalLoop=1;jettySize=auto;html=1;exitX=1;exitY=1;exitDx=0;exitDy=0;" edge="1" parent="1" source="a0YVWdAsiKzPkVq9oQAb-282" target="a0YVWdAsiKzPkVq9oQAb-284">
          <mxGeometry relative="1" as="geometry" />
        </mxCell>
        <mxCell id="a0YVWdAsiKzPkVq9oQAb-287" value="3" style="ellipse;whiteSpace=wrap;html=1;aspect=fixed;" vertex="1" parent="1">
          <mxGeometry x="782" y="1210" width="30" height="30" as="geometry" />
        </mxCell>
        <mxCell id="a0YVWdAsiKzPkVq9oQAb-288" style="edgeStyle=none;rounded=0;jumpStyle=gap;orthogonalLoop=1;jettySize=auto;html=1;exitX=1;exitY=0.5;exitDx=0;exitDy=0;entryX=0;entryY=0.5;entryDx=0;entryDy=0;fontSize=14;fillColor=#f8cecc;strokeColor=#b85450;" edge="1" parent="1" source="a0YVWdAsiKzPkVq9oQAb-289" target="a0YVWdAsiKzPkVq9oQAb-291">
          <mxGeometry relative="1" as="geometry" />
        </mxCell>
        <mxCell id="a0YVWdAsiKzPkVq9oQAb-289" value="5" style="ellipse;whiteSpace=wrap;html=1;aspect=fixed;" vertex="1" parent="1">
          <mxGeometry x="742" y="1270" width="30" height="30" as="geometry" />
        </mxCell>
        <mxCell id="a0YVWdAsiKzPkVq9oQAb-290" style="edgeStyle=none;rounded=0;orthogonalLoop=1;jettySize=auto;html=1;exitX=0.307;exitY=0.944;exitDx=0;exitDy=0;entryX=0.772;entryY=0.044;entryDx=0;entryDy=0;entryPerimeter=0;exitPerimeter=0;" edge="1" parent="1" source="a0YVWdAsiKzPkVq9oQAb-287" target="a0YVWdAsiKzPkVq9oQAb-289">
          <mxGeometry relative="1" as="geometry" />
        </mxCell>
        <mxCell id="a0YVWdAsiKzPkVq9oQAb-291" value="6" style="ellipse;whiteSpace=wrap;html=1;aspect=fixed;" vertex="1" parent="1">
          <mxGeometry x="822" y="1270" width="30" height="30" as="geometry" />
        </mxCell>
        <mxCell id="a0YVWdAsiKzPkVq9oQAb-292" style="edgeStyle=none;rounded=0;orthogonalLoop=1;jettySize=auto;html=1;exitX=1;exitY=1;exitDx=0;exitDy=0;entryX=0.339;entryY=0.055;entryDx=0;entryDy=0;entryPerimeter=0;" edge="1" parent="1" source="a0YVWdAsiKzPkVq9oQAb-287" target="a0YVWdAsiKzPkVq9oQAb-291">
          <mxGeometry relative="1" as="geometry" />
        </mxCell>
        <mxCell id="a0YVWdAsiKzPkVq9oQAb-293" style="rounded=0;orthogonalLoop=1;jettySize=auto;html=1;exitX=0;exitY=1;exitDx=0;exitDy=0;entryX=1;entryY=0;entryDx=0;entryDy=0;" edge="1" parent="1" source="a0YVWdAsiKzPkVq9oQAb-295" target="a0YVWdAsiKzPkVq9oQAb-282">
          <mxGeometry relative="1" as="geometry" />
        </mxCell>
        <mxCell id="a0YVWdAsiKzPkVq9oQAb-294" style="edgeStyle=none;rounded=0;orthogonalLoop=1;jettySize=auto;html=1;exitX=1;exitY=1;exitDx=0;exitDy=0;entryX=0;entryY=0;entryDx=0;entryDy=0;" edge="1" parent="1" source="a0YVWdAsiKzPkVq9oQAb-295" target="a0YVWdAsiKzPkVq9oQAb-287">
          <mxGeometry relative="1" as="geometry" />
        </mxCell>
        <mxCell id="a0YVWdAsiKzPkVq9oQAb-295" value="1" style="ellipse;whiteSpace=wrap;html=1;aspect=fixed;" vertex="1" parent="1">
          <mxGeometry x="702" y="1120" width="30" height="30" as="geometry" />
        </mxCell>
        <mxCell id="a0YVWdAsiKzPkVq9oQAb-296" value="7" style="ellipse;whiteSpace=wrap;html=1;aspect=fixed;" vertex="1" parent="1">
          <mxGeometry x="712" y="1330" width="30" height="30" as="geometry" />
        </mxCell>
        <mxCell id="a0YVWdAsiKzPkVq9oQAb-297" style="edgeStyle=none;rounded=0;orthogonalLoop=1;jettySize=auto;html=1;exitX=0;exitY=1;exitDx=0;exitDy=0;entryX=0.64;entryY=0.044;entryDx=0;entryDy=0;entryPerimeter=0;" edge="1" parent="1" source="a0YVWdAsiKzPkVq9oQAb-289" target="a0YVWdAsiKzPkVq9oQAb-296">
          <mxGeometry relative="1" as="geometry" />
        </mxCell>
        <mxCell id="a0YVWdAsiKzPkVq9oQAb-308" style="edgeStyle=none;rounded=0;jumpStyle=gap;orthogonalLoop=1;jettySize=auto;html=1;entryX=-0.017;entryY=0.295;entryDx=0;entryDy=0;entryPerimeter=0;fontSize=14;fillColor=#f8cecc;strokeColor=#b85450;" edge="1" parent="1" source="a0YVWdAsiKzPkVq9oQAb-298" target="a0YVWdAsiKzPkVq9oQAb-296">
          <mxGeometry relative="1" as="geometry" />
        </mxCell>
        <mxCell id="a0YVWdAsiKzPkVq9oQAb-298" value="dum" style="ellipse;whiteSpace=wrap;html=1;aspect=fixed;align=center;fontSize=12;fillColor=#dae8fc;strokeColor=#6c8ebf;" vertex="1" parent="1">
          <mxGeometry x="527" y="1260" width="30" height="30" as="geometry" />
        </mxCell>
        <mxCell id="a0YVWdAsiKzPkVq9oQAb-299" style="edgeStyle=none;rounded=0;orthogonalLoop=1;jettySize=auto;html=1;fontSize=12;dashed=1;" edge="1" parent="1" source="a0YVWdAsiKzPkVq9oQAb-300">
          <mxGeometry relative="1" as="geometry">
            <mxPoint x="710" y="1350" as="targetPoint" />
          </mxGeometry>
        </mxCell>
        <mxCell id="a0YVWdAsiKzPkVq9oQAb-300" value="pre" style="text;html=1;strokeColor=none;fillColor=none;align=center;verticalAlign=middle;whiteSpace=wrap;rounded=0;fontSize=12;fontStyle=0" vertex="1" parent="1">
          <mxGeometry x="533" y="1345" width="20" height="10" as="geometry" />
        </mxCell>
        <mxCell id="a0YVWdAsiKzPkVq9oQAb-301" style="edgeStyle=none;rounded=0;jumpStyle=gap;orthogonalLoop=1;jettySize=auto;html=1;exitX=0.75;exitY=1;exitDx=0;exitDy=0;entryX=0;entryY=0;entryDx=0;entryDy=0;fontSize=14;dashed=1;" edge="1" parent="1" source="a0YVWdAsiKzPkVq9oQAb-302" target="a0YVWdAsiKzPkVq9oQAb-289">
          <mxGeometry relative="1" as="geometry" />
        </mxCell>
        <mxCell id="a0YVWdAsiKzPkVq9oQAb-302" value="cur" style="text;html=1;strokeColor=none;fillColor=none;align=center;verticalAlign=middle;whiteSpace=wrap;rounded=0;fontSize=12;" vertex="1" parent="1">
          <mxGeometry x="533" y="1220" width="20" height="10" as="geometry" />
        </mxCell>
        <mxCell id="a0YVWdAsiKzPkVq9oQAb-304" value="" style="shape=flexArrow;endArrow=classic;html=1;rounded=0;fontSize=14;jumpStyle=gap;" edge="1" parent="1">
          <mxGeometry width="50" height="50" relative="1" as="geometry">
            <mxPoint x="970" y="1210" as="sourcePoint" />
            <mxPoint x="910" y="1210" as="targetPoint" />
          </mxGeometry>
        </mxCell>
        <mxCell id="a0YVWdAsiKzPkVq9oQAb-309" style="edgeStyle=none;rounded=0;orthogonalLoop=1;jettySize=auto;html=1;entryX=0;entryY=0.5;entryDx=0;entryDy=0;fontSize=14;fillColor=#f8cecc;strokeColor=#b85450;" edge="1" parent="1" source="a0YVWdAsiKzPkVq9oQAb-310" target="a0YVWdAsiKzPkVq9oQAb-314">
          <mxGeometry relative="1" as="geometry" />
        </mxCell>
        <mxCell id="a0YVWdAsiKzPkVq9oQAb-310" value="2" style="ellipse;whiteSpace=wrap;html=1;aspect=fixed;" vertex="1" parent="1">
          <mxGeometry x="152" y="1220" width="30" height="30" as="geometry" />
        </mxCell>
        <mxCell id="a0YVWdAsiKzPkVq9oQAb-311" style="edgeStyle=orthogonalEdgeStyle;curved=1;rounded=0;jumpStyle=gap;orthogonalLoop=1;jettySize=auto;html=1;exitX=1;exitY=0.5;exitDx=0;exitDy=0;entryX=0;entryY=0.5;entryDx=0;entryDy=0;fontSize=14;fillColor=#f8cecc;strokeColor=#b85450;" edge="1" parent="1" source="a0YVWdAsiKzPkVq9oQAb-312" target="a0YVWdAsiKzPkVq9oQAb-316">
          <mxGeometry relative="1" as="geometry" />
        </mxCell>
        <mxCell id="a0YVWdAsiKzPkVq9oQAb-312" value="4" style="ellipse;whiteSpace=wrap;html=1;aspect=fixed;" vertex="1" parent="1">
          <mxGeometry x="192" y="1280" width="30" height="30" as="geometry" />
        </mxCell>
        <mxCell id="a0YVWdAsiKzPkVq9oQAb-313" style="edgeStyle=none;rounded=0;orthogonalLoop=1;jettySize=auto;html=1;exitX=1;exitY=1;exitDx=0;exitDy=0;" edge="1" parent="1" source="a0YVWdAsiKzPkVq9oQAb-310" target="a0YVWdAsiKzPkVq9oQAb-312">
          <mxGeometry relative="1" as="geometry" />
        </mxCell>
        <mxCell id="a0YVWdAsiKzPkVq9oQAb-314" value="3" style="ellipse;whiteSpace=wrap;html=1;aspect=fixed;" vertex="1" parent="1">
          <mxGeometry x="312" y="1220" width="30" height="30" as="geometry" />
        </mxCell>
        <mxCell id="a0YVWdAsiKzPkVq9oQAb-315" style="edgeStyle=none;rounded=0;jumpStyle=gap;orthogonalLoop=1;jettySize=auto;html=1;exitX=1;exitY=0.5;exitDx=0;exitDy=0;entryX=0;entryY=0.5;entryDx=0;entryDy=0;fontSize=14;fillColor=#f8cecc;strokeColor=#b85450;" edge="1" parent="1" source="a0YVWdAsiKzPkVq9oQAb-316" target="a0YVWdAsiKzPkVq9oQAb-318">
          <mxGeometry relative="1" as="geometry" />
        </mxCell>
        <mxCell id="a0YVWdAsiKzPkVq9oQAb-316" value="5" style="ellipse;whiteSpace=wrap;html=1;aspect=fixed;" vertex="1" parent="1">
          <mxGeometry x="272" y="1280" width="30" height="30" as="geometry" />
        </mxCell>
        <mxCell id="a0YVWdAsiKzPkVq9oQAb-317" style="edgeStyle=none;rounded=0;orthogonalLoop=1;jettySize=auto;html=1;exitX=0.307;exitY=0.944;exitDx=0;exitDy=0;entryX=0.772;entryY=0.044;entryDx=0;entryDy=0;entryPerimeter=0;exitPerimeter=0;" edge="1" parent="1" source="a0YVWdAsiKzPkVq9oQAb-314" target="a0YVWdAsiKzPkVq9oQAb-316">
          <mxGeometry relative="1" as="geometry" />
        </mxCell>
        <mxCell id="a0YVWdAsiKzPkVq9oQAb-318" value="6" style="ellipse;whiteSpace=wrap;html=1;aspect=fixed;" vertex="1" parent="1">
          <mxGeometry x="352" y="1280" width="30" height="30" as="geometry" />
        </mxCell>
        <mxCell id="a0YVWdAsiKzPkVq9oQAb-319" style="edgeStyle=none;rounded=0;orthogonalLoop=1;jettySize=auto;html=1;exitX=1;exitY=1;exitDx=0;exitDy=0;entryX=0.339;entryY=0.055;entryDx=0;entryDy=0;entryPerimeter=0;" edge="1" parent="1" source="a0YVWdAsiKzPkVq9oQAb-314" target="a0YVWdAsiKzPkVq9oQAb-318">
          <mxGeometry relative="1" as="geometry" />
        </mxCell>
        <mxCell id="a0YVWdAsiKzPkVq9oQAb-320" style="rounded=0;orthogonalLoop=1;jettySize=auto;html=1;exitX=0;exitY=1;exitDx=0;exitDy=0;entryX=1;entryY=0;entryDx=0;entryDy=0;" edge="1" parent="1" source="a0YVWdAsiKzPkVq9oQAb-322" target="a0YVWdAsiKzPkVq9oQAb-310">
          <mxGeometry relative="1" as="geometry" />
        </mxCell>
        <mxCell id="a0YVWdAsiKzPkVq9oQAb-321" style="edgeStyle=none;rounded=0;orthogonalLoop=1;jettySize=auto;html=1;exitX=1;exitY=1;exitDx=0;exitDy=0;entryX=0;entryY=0;entryDx=0;entryDy=0;" edge="1" parent="1" source="a0YVWdAsiKzPkVq9oQAb-322" target="a0YVWdAsiKzPkVq9oQAb-314">
          <mxGeometry relative="1" as="geometry" />
        </mxCell>
        <mxCell id="a0YVWdAsiKzPkVq9oQAb-322" value="1" style="ellipse;whiteSpace=wrap;html=1;aspect=fixed;" vertex="1" parent="1">
          <mxGeometry x="232" y="1130" width="30" height="30" as="geometry" />
        </mxCell>
        <mxCell id="a0YVWdAsiKzPkVq9oQAb-323" value="7" style="ellipse;whiteSpace=wrap;html=1;aspect=fixed;" vertex="1" parent="1">
          <mxGeometry x="242" y="1340" width="30" height="30" as="geometry" />
        </mxCell>
        <mxCell id="a0YVWdAsiKzPkVq9oQAb-324" style="edgeStyle=none;rounded=0;orthogonalLoop=1;jettySize=auto;html=1;exitX=0;exitY=1;exitDx=0;exitDy=0;entryX=0.64;entryY=0.044;entryDx=0;entryDy=0;entryPerimeter=0;" edge="1" parent="1" source="a0YVWdAsiKzPkVq9oQAb-316" target="a0YVWdAsiKzPkVq9oQAb-323">
          <mxGeometry relative="1" as="geometry" />
        </mxCell>
        <mxCell id="a0YVWdAsiKzPkVq9oQAb-325" style="edgeStyle=none;rounded=0;jumpStyle=gap;orthogonalLoop=1;jettySize=auto;html=1;entryX=-0.017;entryY=0.295;entryDx=0;entryDy=0;entryPerimeter=0;fontSize=14;fillColor=#f8cecc;strokeColor=#b85450;" edge="1" parent="1" source="a0YVWdAsiKzPkVq9oQAb-326" target="a0YVWdAsiKzPkVq9oQAb-323">
          <mxGeometry relative="1" as="geometry" />
        </mxCell>
        <mxCell id="a0YVWdAsiKzPkVq9oQAb-326" value="dum" style="ellipse;whiteSpace=wrap;html=1;aspect=fixed;align=center;fontSize=12;fillColor=#dae8fc;strokeColor=#6c8ebf;" vertex="1" parent="1">
          <mxGeometry x="57" y="1270" width="30" height="30" as="geometry" />
        </mxCell>
        <mxCell id="a0YVWdAsiKzPkVq9oQAb-327" style="edgeStyle=none;rounded=0;orthogonalLoop=1;jettySize=auto;html=1;fontSize=12;dashed=1;" edge="1" parent="1" source="a0YVWdAsiKzPkVq9oQAb-328">
          <mxGeometry relative="1" as="geometry">
            <mxPoint x="240" y="1360" as="targetPoint" />
          </mxGeometry>
        </mxCell>
        <mxCell id="a0YVWdAsiKzPkVq9oQAb-328" value="pre" style="text;html=1;strokeColor=none;fillColor=none;align=center;verticalAlign=middle;whiteSpace=wrap;rounded=0;fontSize=12;fontStyle=0" vertex="1" parent="1">
          <mxGeometry x="63" y="1355" width="20" height="10" as="geometry" />
        </mxCell>
        <mxCell id="a0YVWdAsiKzPkVq9oQAb-329" style="edgeStyle=none;rounded=0;jumpStyle=gap;orthogonalLoop=1;jettySize=auto;html=1;exitX=0.75;exitY=1;exitDx=0;exitDy=0;fontSize=14;dashed=1;" edge="1" parent="1" source="a0YVWdAsiKzPkVq9oQAb-330">
          <mxGeometry relative="1" as="geometry">
            <mxPoint x="350" y="1280" as="targetPoint" />
          </mxGeometry>
        </mxCell>
        <mxCell id="a0YVWdAsiKzPkVq9oQAb-330" value="cur" style="text;html=1;strokeColor=none;fillColor=none;align=center;verticalAlign=middle;whiteSpace=wrap;rounded=0;fontSize=12;" vertex="1" parent="1">
          <mxGeometry x="63" y="1230" width="20" height="10" as="geometry" />
        </mxCell>
        <mxCell id="a0YVWdAsiKzPkVq9oQAb-331" value="" style="shape=flexArrow;endArrow=classic;html=1;rounded=0;fontSize=14;jumpStyle=gap;" edge="1" parent="1">
          <mxGeometry width="50" height="50" relative="1" as="geometry">
            <mxPoint x="460" y="1217" as="sourcePoint" />
            <mxPoint x="400" y="1217" as="targetPoint" />
          </mxGeometry>
        </mxCell>
        <mxCell id="a0YVWdAsiKzPkVq9oQAb-332" style="edgeStyle=none;rounded=0;orthogonalLoop=1;jettySize=auto;html=1;entryX=0;entryY=0.5;entryDx=0;entryDy=0;fontSize=14;fillColor=#f8cecc;strokeColor=#b85450;" edge="1" parent="1" source="a0YVWdAsiKzPkVq9oQAb-333" target="a0YVWdAsiKzPkVq9oQAb-337">
          <mxGeometry relative="1" as="geometry" />
        </mxCell>
        <mxCell id="a0YVWdAsiKzPkVq9oQAb-333" value="2" style="ellipse;whiteSpace=wrap;html=1;aspect=fixed;" vertex="1" parent="1">
          <mxGeometry x="152" y="1600" width="30" height="30" as="geometry" />
        </mxCell>
        <mxCell id="a0YVWdAsiKzPkVq9oQAb-334" style="edgeStyle=orthogonalEdgeStyle;curved=1;rounded=0;jumpStyle=gap;orthogonalLoop=1;jettySize=auto;html=1;exitX=1;exitY=0.5;exitDx=0;exitDy=0;entryX=0;entryY=0.5;entryDx=0;entryDy=0;fontSize=14;fillColor=#f8cecc;strokeColor=#b85450;" edge="1" parent="1" source="a0YVWdAsiKzPkVq9oQAb-335" target="a0YVWdAsiKzPkVq9oQAb-339">
          <mxGeometry relative="1" as="geometry" />
        </mxCell>
        <mxCell id="a0YVWdAsiKzPkVq9oQAb-335" value="4" style="ellipse;whiteSpace=wrap;html=1;aspect=fixed;" vertex="1" parent="1">
          <mxGeometry x="192" y="1660" width="30" height="30" as="geometry" />
        </mxCell>
        <mxCell id="a0YVWdAsiKzPkVq9oQAb-336" style="edgeStyle=none;rounded=0;orthogonalLoop=1;jettySize=auto;html=1;exitX=1;exitY=1;exitDx=0;exitDy=0;" edge="1" parent="1" source="a0YVWdAsiKzPkVq9oQAb-333" target="a0YVWdAsiKzPkVq9oQAb-335">
          <mxGeometry relative="1" as="geometry" />
        </mxCell>
        <mxCell id="a0YVWdAsiKzPkVq9oQAb-337" value="3" style="ellipse;whiteSpace=wrap;html=1;aspect=fixed;" vertex="1" parent="1">
          <mxGeometry x="312" y="1600" width="30" height="30" as="geometry" />
        </mxCell>
        <mxCell id="a0YVWdAsiKzPkVq9oQAb-338" style="edgeStyle=none;rounded=0;jumpStyle=gap;orthogonalLoop=1;jettySize=auto;html=1;exitX=1;exitY=0.5;exitDx=0;exitDy=0;entryX=0;entryY=0.5;entryDx=0;entryDy=0;fontSize=14;fillColor=#f8cecc;strokeColor=#b85450;" edge="1" parent="1" source="a0YVWdAsiKzPkVq9oQAb-339" target="a0YVWdAsiKzPkVq9oQAb-341">
          <mxGeometry relative="1" as="geometry" />
        </mxCell>
        <mxCell id="a0YVWdAsiKzPkVq9oQAb-339" value="5" style="ellipse;whiteSpace=wrap;html=1;aspect=fixed;" vertex="1" parent="1">
          <mxGeometry x="272" y="1660" width="30" height="30" as="geometry" />
        </mxCell>
        <mxCell id="a0YVWdAsiKzPkVq9oQAb-340" style="edgeStyle=none;rounded=0;orthogonalLoop=1;jettySize=auto;html=1;exitX=0.307;exitY=0.944;exitDx=0;exitDy=0;entryX=0.772;entryY=0.044;entryDx=0;entryDy=0;entryPerimeter=0;exitPerimeter=0;" edge="1" parent="1" source="a0YVWdAsiKzPkVq9oQAb-337" target="a0YVWdAsiKzPkVq9oQAb-339">
          <mxGeometry relative="1" as="geometry" />
        </mxCell>
        <mxCell id="a0YVWdAsiKzPkVq9oQAb-354" style="edgeStyle=none;rounded=0;jumpStyle=gap;orthogonalLoop=1;jettySize=auto;html=1;fontSize=14;" edge="1" parent="1" source="a0YVWdAsiKzPkVq9oQAb-341">
          <mxGeometry relative="1" as="geometry">
            <mxPoint x="440" y="1675" as="targetPoint" />
          </mxGeometry>
        </mxCell>
        <mxCell id="a0YVWdAsiKzPkVq9oQAb-341" value="6" style="ellipse;whiteSpace=wrap;html=1;aspect=fixed;" vertex="1" parent="1">
          <mxGeometry x="352" y="1660" width="30" height="30" as="geometry" />
        </mxCell>
        <mxCell id="a0YVWdAsiKzPkVq9oQAb-342" style="edgeStyle=none;rounded=0;orthogonalLoop=1;jettySize=auto;html=1;exitX=1;exitY=1;exitDx=0;exitDy=0;entryX=0.339;entryY=0.055;entryDx=0;entryDy=0;entryPerimeter=0;" edge="1" parent="1" source="a0YVWdAsiKzPkVq9oQAb-337" target="a0YVWdAsiKzPkVq9oQAb-341">
          <mxGeometry relative="1" as="geometry" />
        </mxCell>
        <mxCell id="a0YVWdAsiKzPkVq9oQAb-343" style="rounded=0;orthogonalLoop=1;jettySize=auto;html=1;exitX=0;exitY=1;exitDx=0;exitDy=0;entryX=1;entryY=0;entryDx=0;entryDy=0;" edge="1" parent="1" source="a0YVWdAsiKzPkVq9oQAb-345" target="a0YVWdAsiKzPkVq9oQAb-333">
          <mxGeometry relative="1" as="geometry" />
        </mxCell>
        <mxCell id="a0YVWdAsiKzPkVq9oQAb-344" style="edgeStyle=none;rounded=0;orthogonalLoop=1;jettySize=auto;html=1;exitX=1;exitY=1;exitDx=0;exitDy=0;entryX=0;entryY=0;entryDx=0;entryDy=0;" edge="1" parent="1" source="a0YVWdAsiKzPkVq9oQAb-345" target="a0YVWdAsiKzPkVq9oQAb-337">
          <mxGeometry relative="1" as="geometry" />
        </mxCell>
        <mxCell id="a0YVWdAsiKzPkVq9oQAb-345" value="1" style="ellipse;whiteSpace=wrap;html=1;aspect=fixed;" vertex="1" parent="1">
          <mxGeometry x="232" y="1510" width="30" height="30" as="geometry" />
        </mxCell>
        <mxCell id="a0YVWdAsiKzPkVq9oQAb-346" value="7" style="ellipse;whiteSpace=wrap;html=1;aspect=fixed;" vertex="1" parent="1">
          <mxGeometry x="242" y="1720" width="30" height="30" as="geometry" />
        </mxCell>
        <mxCell id="a0YVWdAsiKzPkVq9oQAb-347" style="edgeStyle=none;rounded=0;orthogonalLoop=1;jettySize=auto;html=1;exitX=0;exitY=1;exitDx=0;exitDy=0;entryX=0.64;entryY=0.044;entryDx=0;entryDy=0;entryPerimeter=0;" edge="1" parent="1" source="a0YVWdAsiKzPkVq9oQAb-339" target="a0YVWdAsiKzPkVq9oQAb-346">
          <mxGeometry relative="1" as="geometry" />
        </mxCell>
        <mxCell id="a0YVWdAsiKzPkVq9oQAb-348" style="edgeStyle=none;rounded=0;jumpStyle=gap;orthogonalLoop=1;jettySize=auto;html=1;entryX=-0.017;entryY=0.295;entryDx=0;entryDy=0;entryPerimeter=0;fontSize=14;fillColor=#f8cecc;strokeColor=#b85450;" edge="1" parent="1" source="a0YVWdAsiKzPkVq9oQAb-349" target="a0YVWdAsiKzPkVq9oQAb-346">
          <mxGeometry relative="1" as="geometry" />
        </mxCell>
        <mxCell id="a0YVWdAsiKzPkVq9oQAb-349" value="dum" style="ellipse;whiteSpace=wrap;html=1;aspect=fixed;align=center;fontSize=12;fillColor=#dae8fc;strokeColor=#6c8ebf;" vertex="1" parent="1">
          <mxGeometry x="57" y="1650" width="30" height="30" as="geometry" />
        </mxCell>
        <mxCell id="a0YVWdAsiKzPkVq9oQAb-350" style="edgeStyle=none;rounded=0;orthogonalLoop=1;jettySize=auto;html=1;fontSize=12;dashed=1;" edge="1" parent="1" source="a0YVWdAsiKzPkVq9oQAb-351">
          <mxGeometry relative="1" as="geometry">
            <mxPoint x="240" y="1740" as="targetPoint" />
          </mxGeometry>
        </mxCell>
        <mxCell id="a0YVWdAsiKzPkVq9oQAb-351" value="pre" style="text;html=1;strokeColor=none;fillColor=none;align=center;verticalAlign=middle;whiteSpace=wrap;rounded=0;fontSize=12;fontStyle=0" vertex="1" parent="1">
          <mxGeometry x="63" y="1735" width="20" height="10" as="geometry" />
        </mxCell>
        <mxCell id="a0YVWdAsiKzPkVq9oQAb-352" style="edgeStyle=orthogonalEdgeStyle;rounded=0;jumpStyle=gap;orthogonalLoop=1;jettySize=auto;html=1;exitX=0.75;exitY=1;exitDx=0;exitDy=0;fontSize=14;dashed=1;entryX=0.5;entryY=0;entryDx=0;entryDy=0;" edge="1" parent="1" source="a0YVWdAsiKzPkVq9oQAb-353" target="a0YVWdAsiKzPkVq9oQAb-355">
          <mxGeometry relative="1" as="geometry">
            <mxPoint x="350" y="1660" as="targetPoint" />
            <Array as="points">
              <mxPoint x="78" y="1490" />
              <mxPoint x="454" y="1490" />
            </Array>
          </mxGeometry>
        </mxCell>
        <mxCell id="a0YVWdAsiKzPkVq9oQAb-353" value="cur" style="text;html=1;strokeColor=none;fillColor=none;align=center;verticalAlign=middle;whiteSpace=wrap;rounded=0;fontSize=12;" vertex="1" parent="1">
          <mxGeometry x="63" y="1610" width="20" height="10" as="geometry" />
        </mxCell>
        <mxCell id="a0YVWdAsiKzPkVq9oQAb-355" value="nil" style="text;html=1;strokeColor=none;fillColor=none;align=center;verticalAlign=middle;whiteSpace=wrap;rounded=0;fontSize=14;" vertex="1" parent="1">
          <mxGeometry x="440" y="1660" width="28" height="30" as="geometry" />
        </mxCell>
        <mxCell id="a0YVWdAsiKzPkVq9oQAb-356" value="" style="shape=flexArrow;endArrow=classic;html=1;rounded=0;fontSize=14;jumpStyle=gap;" edge="1" parent="1">
          <mxGeometry width="50" height="50" relative="1" as="geometry">
            <mxPoint x="262" y="1400" as="sourcePoint" />
            <mxPoint x="262" y="1460" as="targetPoint" />
          </mxGeometry>
        </mxCell>
        <mxCell id="a0YVWdAsiKzPkVq9oQAb-357" style="edgeStyle=none;rounded=0;orthogonalLoop=1;jettySize=auto;html=1;entryX=0;entryY=0.5;entryDx=0;entryDy=0;fontSize=14;fillColor=#f8cecc;strokeColor=#b85450;" edge="1" parent="1" source="a0YVWdAsiKzPkVq9oQAb-358" target="a0YVWdAsiKzPkVq9oQAb-362">
          <mxGeometry relative="1" as="geometry" />
        </mxCell>
        <mxCell id="a0YVWdAsiKzPkVq9oQAb-358" value="2" style="ellipse;whiteSpace=wrap;html=1;aspect=fixed;" vertex="1" parent="1">
          <mxGeometry x="708" y="1595" width="30" height="30" as="geometry" />
        </mxCell>
        <mxCell id="a0YVWdAsiKzPkVq9oQAb-359" style="edgeStyle=orthogonalEdgeStyle;curved=1;rounded=0;jumpStyle=gap;orthogonalLoop=1;jettySize=auto;html=1;exitX=1;exitY=0.5;exitDx=0;exitDy=0;entryX=0;entryY=0.5;entryDx=0;entryDy=0;fontSize=14;fillColor=#f8cecc;strokeColor=#b85450;" edge="1" parent="1" source="a0YVWdAsiKzPkVq9oQAb-360" target="a0YVWdAsiKzPkVq9oQAb-364">
          <mxGeometry relative="1" as="geometry" />
        </mxCell>
        <mxCell id="a0YVWdAsiKzPkVq9oQAb-360" value="4" style="ellipse;whiteSpace=wrap;html=1;aspect=fixed;" vertex="1" parent="1">
          <mxGeometry x="748" y="1655" width="30" height="30" as="geometry" />
        </mxCell>
        <mxCell id="a0YVWdAsiKzPkVq9oQAb-361" style="edgeStyle=none;rounded=0;orthogonalLoop=1;jettySize=auto;html=1;exitX=1;exitY=1;exitDx=0;exitDy=0;" edge="1" parent="1" source="a0YVWdAsiKzPkVq9oQAb-358" target="a0YVWdAsiKzPkVq9oQAb-360">
          <mxGeometry relative="1" as="geometry" />
        </mxCell>
        <mxCell id="a0YVWdAsiKzPkVq9oQAb-362" value="3" style="ellipse;whiteSpace=wrap;html=1;aspect=fixed;" vertex="1" parent="1">
          <mxGeometry x="868" y="1595" width="30" height="30" as="geometry" />
        </mxCell>
        <mxCell id="a0YVWdAsiKzPkVq9oQAb-363" style="edgeStyle=none;rounded=0;jumpStyle=gap;orthogonalLoop=1;jettySize=auto;html=1;exitX=1;exitY=0.5;exitDx=0;exitDy=0;entryX=0;entryY=0.5;entryDx=0;entryDy=0;fontSize=14;fillColor=#f8cecc;strokeColor=#b85450;" edge="1" parent="1" source="a0YVWdAsiKzPkVq9oQAb-364" target="a0YVWdAsiKzPkVq9oQAb-367">
          <mxGeometry relative="1" as="geometry" />
        </mxCell>
        <mxCell id="a0YVWdAsiKzPkVq9oQAb-364" value="5" style="ellipse;whiteSpace=wrap;html=1;aspect=fixed;" vertex="1" parent="1">
          <mxGeometry x="828" y="1655" width="30" height="30" as="geometry" />
        </mxCell>
        <mxCell id="a0YVWdAsiKzPkVq9oQAb-365" style="edgeStyle=none;rounded=0;orthogonalLoop=1;jettySize=auto;html=1;exitX=0.307;exitY=0.944;exitDx=0;exitDy=0;entryX=0.772;entryY=0.044;entryDx=0;entryDy=0;entryPerimeter=0;exitPerimeter=0;" edge="1" parent="1" source="a0YVWdAsiKzPkVq9oQAb-362" target="a0YVWdAsiKzPkVq9oQAb-364">
          <mxGeometry relative="1" as="geometry" />
        </mxCell>
        <mxCell id="a0YVWdAsiKzPkVq9oQAb-367" value="6" style="ellipse;whiteSpace=wrap;html=1;aspect=fixed;" vertex="1" parent="1">
          <mxGeometry x="908" y="1655" width="30" height="30" as="geometry" />
        </mxCell>
        <mxCell id="a0YVWdAsiKzPkVq9oQAb-368" style="edgeStyle=none;rounded=0;orthogonalLoop=1;jettySize=auto;html=1;exitX=1;exitY=1;exitDx=0;exitDy=0;entryX=0.339;entryY=0.055;entryDx=0;entryDy=0;entryPerimeter=0;" edge="1" parent="1" source="a0YVWdAsiKzPkVq9oQAb-362" target="a0YVWdAsiKzPkVq9oQAb-367">
          <mxGeometry relative="1" as="geometry" />
        </mxCell>
        <mxCell id="a0YVWdAsiKzPkVq9oQAb-369" style="rounded=0;orthogonalLoop=1;jettySize=auto;html=1;exitX=0;exitY=1;exitDx=0;exitDy=0;entryX=1;entryY=0;entryDx=0;entryDy=0;" edge="1" parent="1" source="a0YVWdAsiKzPkVq9oQAb-371" target="a0YVWdAsiKzPkVq9oQAb-358">
          <mxGeometry relative="1" as="geometry" />
        </mxCell>
        <mxCell id="a0YVWdAsiKzPkVq9oQAb-370" style="edgeStyle=none;rounded=0;orthogonalLoop=1;jettySize=auto;html=1;exitX=1;exitY=1;exitDx=0;exitDy=0;entryX=0;entryY=0;entryDx=0;entryDy=0;" edge="1" parent="1" source="a0YVWdAsiKzPkVq9oQAb-371" target="a0YVWdAsiKzPkVq9oQAb-362">
          <mxGeometry relative="1" as="geometry" />
        </mxCell>
        <mxCell id="a0YVWdAsiKzPkVq9oQAb-371" value="1" style="ellipse;whiteSpace=wrap;html=1;aspect=fixed;" vertex="1" parent="1">
          <mxGeometry x="788" y="1505" width="30" height="30" as="geometry" />
        </mxCell>
        <mxCell id="a0YVWdAsiKzPkVq9oQAb-372" value="7" style="ellipse;whiteSpace=wrap;html=1;aspect=fixed;" vertex="1" parent="1">
          <mxGeometry x="798" y="1715" width="30" height="30" as="geometry" />
        </mxCell>
        <mxCell id="a0YVWdAsiKzPkVq9oQAb-373" style="edgeStyle=none;rounded=0;orthogonalLoop=1;jettySize=auto;html=1;exitX=0;exitY=1;exitDx=0;exitDy=0;entryX=0.64;entryY=0.044;entryDx=0;entryDy=0;entryPerimeter=0;" edge="1" parent="1" source="a0YVWdAsiKzPkVq9oQAb-364" target="a0YVWdAsiKzPkVq9oQAb-372">
          <mxGeometry relative="1" as="geometry" />
        </mxCell>
        <mxCell id="a0YVWdAsiKzPkVq9oQAb-375" value="dum" style="ellipse;whiteSpace=wrap;html=1;aspect=fixed;align=center;fontSize=12;fillColor=#dae8fc;strokeColor=#6c8ebf;" vertex="1" parent="1">
          <mxGeometry x="613" y="1666" width="30" height="30" as="geometry" />
        </mxCell>
        <mxCell id="a0YVWdAsiKzPkVq9oQAb-376" style="edgeStyle=none;rounded=0;orthogonalLoop=1;jettySize=auto;html=1;fontSize=12;dashed=1;" edge="1" parent="1" source="a0YVWdAsiKzPkVq9oQAb-377">
          <mxGeometry relative="1" as="geometry">
            <mxPoint x="628" y="1705" as="targetPoint" />
          </mxGeometry>
        </mxCell>
        <mxCell id="a0YVWdAsiKzPkVq9oQAb-377" value="pre" style="text;html=1;strokeColor=none;fillColor=none;align=center;verticalAlign=middle;whiteSpace=wrap;rounded=0;fontSize=12;fontStyle=0" vertex="1" parent="1">
          <mxGeometry x="618" y="1735" width="20" height="10" as="geometry" />
        </mxCell>
        <mxCell id="a0YVWdAsiKzPkVq9oQAb-381" style="rounded=0;jumpStyle=gap;orthogonalLoop=1;jettySize=auto;html=1;exitX=1;exitY=0.5;exitDx=0;exitDy=0;entryX=0;entryY=0;entryDx=0;entryDy=0;fontSize=14;dashed=1;" edge="1" parent="1" source="a0YVWdAsiKzPkVq9oQAb-379" target="a0YVWdAsiKzPkVq9oQAb-372">
          <mxGeometry relative="1" as="geometry" />
        </mxCell>
        <mxCell id="a0YVWdAsiKzPkVq9oQAb-379" value="cur" style="text;html=1;strokeColor=none;fillColor=none;align=center;verticalAlign=middle;whiteSpace=wrap;rounded=0;fontSize=12;" vertex="1" parent="1">
          <mxGeometry x="619" y="1626" width="20" height="10" as="geometry" />
        </mxCell>
        <mxCell id="a0YVWdAsiKzPkVq9oQAb-382" value="" style="shape=flexArrow;endArrow=classic;html=1;rounded=0;fontSize=14;jumpStyle=gap;" edge="1" parent="1">
          <mxGeometry width="50" height="50" relative="1" as="geometry">
            <mxPoint x="498" y="1600.0000000000005" as="sourcePoint" />
            <mxPoint x="578" y="1600" as="targetPoint" />
          </mxGeometry>
        </mxCell>
        <mxCell id="a0YVWdAsiKzPkVq9oQAb-383" style="edgeStyle=none;rounded=0;orthogonalLoop=1;jettySize=auto;html=1;entryX=0;entryY=0.5;entryDx=0;entryDy=0;fontSize=14;fillColor=#f8cecc;strokeColor=#b85450;" edge="1" parent="1" source="a0YVWdAsiKzPkVq9oQAb-384" target="a0YVWdAsiKzPkVq9oQAb-388">
          <mxGeometry relative="1" as="geometry" />
        </mxCell>
        <mxCell id="a0YVWdAsiKzPkVq9oQAb-384" value="2" style="ellipse;whiteSpace=wrap;html=1;aspect=fixed;" vertex="1" parent="1">
          <mxGeometry x="1177.5" y="1580" width="30" height="30" as="geometry" />
        </mxCell>
        <mxCell id="a0YVWdAsiKzPkVq9oQAb-385" style="edgeStyle=orthogonalEdgeStyle;curved=1;rounded=0;jumpStyle=gap;orthogonalLoop=1;jettySize=auto;html=1;exitX=1;exitY=0.5;exitDx=0;exitDy=0;entryX=0;entryY=0.5;entryDx=0;entryDy=0;fontSize=14;fillColor=#f8cecc;strokeColor=#b85450;" edge="1" parent="1" source="a0YVWdAsiKzPkVq9oQAb-386" target="a0YVWdAsiKzPkVq9oQAb-390">
          <mxGeometry relative="1" as="geometry" />
        </mxCell>
        <mxCell id="a0YVWdAsiKzPkVq9oQAb-386" value="4" style="ellipse;whiteSpace=wrap;html=1;aspect=fixed;" vertex="1" parent="1">
          <mxGeometry x="1217.5" y="1640" width="30" height="30" as="geometry" />
        </mxCell>
        <mxCell id="a0YVWdAsiKzPkVq9oQAb-387" style="edgeStyle=none;rounded=0;orthogonalLoop=1;jettySize=auto;html=1;exitX=1;exitY=1;exitDx=0;exitDy=0;" edge="1" parent="1" source="a0YVWdAsiKzPkVq9oQAb-384" target="a0YVWdAsiKzPkVq9oQAb-386">
          <mxGeometry relative="1" as="geometry" />
        </mxCell>
        <mxCell id="a0YVWdAsiKzPkVq9oQAb-388" value="3" style="ellipse;whiteSpace=wrap;html=1;aspect=fixed;" vertex="1" parent="1">
          <mxGeometry x="1337.5" y="1580" width="30" height="30" as="geometry" />
        </mxCell>
        <mxCell id="a0YVWdAsiKzPkVq9oQAb-389" style="edgeStyle=none;rounded=0;jumpStyle=gap;orthogonalLoop=1;jettySize=auto;html=1;exitX=1;exitY=0.5;exitDx=0;exitDy=0;entryX=0;entryY=0.5;entryDx=0;entryDy=0;fontSize=14;fillColor=#f8cecc;strokeColor=#b85450;" edge="1" parent="1" source="a0YVWdAsiKzPkVq9oQAb-390" target="a0YVWdAsiKzPkVq9oQAb-392">
          <mxGeometry relative="1" as="geometry" />
        </mxCell>
        <mxCell id="a0YVWdAsiKzPkVq9oQAb-390" value="5" style="ellipse;whiteSpace=wrap;html=1;aspect=fixed;" vertex="1" parent="1">
          <mxGeometry x="1297.5" y="1640" width="30" height="30" as="geometry" />
        </mxCell>
        <mxCell id="a0YVWdAsiKzPkVq9oQAb-391" style="edgeStyle=none;rounded=0;orthogonalLoop=1;jettySize=auto;html=1;exitX=0.307;exitY=0.944;exitDx=0;exitDy=0;entryX=0.772;entryY=0.044;entryDx=0;entryDy=0;entryPerimeter=0;exitPerimeter=0;" edge="1" parent="1" source="a0YVWdAsiKzPkVq9oQAb-388" target="a0YVWdAsiKzPkVq9oQAb-390">
          <mxGeometry relative="1" as="geometry" />
        </mxCell>
        <mxCell id="a0YVWdAsiKzPkVq9oQAb-392" value="6" style="ellipse;whiteSpace=wrap;html=1;aspect=fixed;" vertex="1" parent="1">
          <mxGeometry x="1377.5" y="1640" width="30" height="30" as="geometry" />
        </mxCell>
        <mxCell id="a0YVWdAsiKzPkVq9oQAb-393" style="edgeStyle=none;rounded=0;orthogonalLoop=1;jettySize=auto;html=1;exitX=1;exitY=1;exitDx=0;exitDy=0;entryX=0.339;entryY=0.055;entryDx=0;entryDy=0;entryPerimeter=0;" edge="1" parent="1" source="a0YVWdAsiKzPkVq9oQAb-388" target="a0YVWdAsiKzPkVq9oQAb-392">
          <mxGeometry relative="1" as="geometry" />
        </mxCell>
        <mxCell id="a0YVWdAsiKzPkVq9oQAb-394" style="rounded=0;orthogonalLoop=1;jettySize=auto;html=1;exitX=0;exitY=1;exitDx=0;exitDy=0;entryX=1;entryY=0;entryDx=0;entryDy=0;" edge="1" parent="1" source="a0YVWdAsiKzPkVq9oQAb-396" target="a0YVWdAsiKzPkVq9oQAb-384">
          <mxGeometry relative="1" as="geometry" />
        </mxCell>
        <mxCell id="a0YVWdAsiKzPkVq9oQAb-395" style="edgeStyle=none;rounded=0;orthogonalLoop=1;jettySize=auto;html=1;exitX=1;exitY=1;exitDx=0;exitDy=0;entryX=0;entryY=0;entryDx=0;entryDy=0;" edge="1" parent="1" source="a0YVWdAsiKzPkVq9oQAb-396" target="a0YVWdAsiKzPkVq9oQAb-388">
          <mxGeometry relative="1" as="geometry" />
        </mxCell>
        <mxCell id="a0YVWdAsiKzPkVq9oQAb-396" value="1" style="ellipse;whiteSpace=wrap;html=1;aspect=fixed;" vertex="1" parent="1">
          <mxGeometry x="1257.5" y="1490" width="30" height="30" as="geometry" />
        </mxCell>
        <mxCell id="a0YVWdAsiKzPkVq9oQAb-397" value="7" style="ellipse;whiteSpace=wrap;html=1;aspect=fixed;" vertex="1" parent="1">
          <mxGeometry x="1267.5" y="1700" width="30" height="30" as="geometry" />
        </mxCell>
        <mxCell id="a0YVWdAsiKzPkVq9oQAb-398" style="edgeStyle=none;rounded=0;orthogonalLoop=1;jettySize=auto;html=1;exitX=0;exitY=1;exitDx=0;exitDy=0;entryX=0.64;entryY=0.044;entryDx=0;entryDy=0;entryPerimeter=0;" edge="1" parent="1" source="a0YVWdAsiKzPkVq9oQAb-390" target="a0YVWdAsiKzPkVq9oQAb-397">
          <mxGeometry relative="1" as="geometry" />
        </mxCell>
        <mxCell id="a0YVWdAsiKzPkVq9oQAb-399" value="dum" style="ellipse;whiteSpace=wrap;html=1;aspect=fixed;align=center;fontSize=12;fillColor=#dae8fc;strokeColor=#6c8ebf;" vertex="1" parent="1">
          <mxGeometry x="1110" y="1576" width="30" height="30" as="geometry" />
        </mxCell>
        <mxCell id="a0YVWdAsiKzPkVq9oQAb-400" style="edgeStyle=none;rounded=0;orthogonalLoop=1;jettySize=auto;html=1;fontSize=12;dashed=1;" edge="1" parent="1" source="a0YVWdAsiKzPkVq9oQAb-401">
          <mxGeometry relative="1" as="geometry">
            <mxPoint x="1125.0000000000002" y="1615.0000000000005" as="targetPoint" />
          </mxGeometry>
        </mxCell>
        <mxCell id="a0YVWdAsiKzPkVq9oQAb-401" value="pre" style="text;html=1;strokeColor=none;fillColor=none;align=center;verticalAlign=middle;whiteSpace=wrap;rounded=0;fontSize=12;fontStyle=0" vertex="1" parent="1">
          <mxGeometry x="1115" y="1645" width="20" height="10" as="geometry" />
        </mxCell>
        <mxCell id="a0YVWdAsiKzPkVq9oQAb-403" value="cur" style="text;html=1;strokeColor=none;fillColor=none;align=center;verticalAlign=middle;whiteSpace=wrap;rounded=0;fontSize=12;" vertex="1" parent="1">
          <mxGeometry x="1116" y="1536" width="20" height="10" as="geometry" />
        </mxCell>
        <mxCell id="a0YVWdAsiKzPkVq9oQAb-404" value="" style="shape=flexArrow;endArrow=classic;html=1;rounded=0;fontSize=14;jumpStyle=gap;" edge="1" parent="1">
          <mxGeometry width="50" height="50" relative="1" as="geometry">
            <mxPoint x="975.0000000000002" y="1595.0000000000005" as="sourcePoint" />
            <mxPoint x="1055.0000000000002" y="1595.0000000000005" as="targetPoint" />
          </mxGeometry>
        </mxCell>
      </root>
    </mxGraphModel>
  </diagram>
</mxfile>
